<?xml version="1.0" encoding="UTF-8" standalone="no"?>
<svg width="" height="" viewBox="0 0 722 694" version="1.1" xmlns="http://www.w3.org/2000/svg" xmlns:xlink="http://www.w3.org/1999/xlink">
    <!-- Generator: Sketch 44.1 (41455) - http://www.bohemiancoding.com/sketch -->
    <title>Africa Maps</title>
    <desc>Created with Sketch.</desc>
    <defs></defs>
    <g id="Page-1" stroke="none" stroke-width="1" fill="none" fill-rule="evenodd">
        <g id="Africa-Maps">
            <g id="Full-Map" transform="translate(0.000000, 0.252262)">
                <path d="M587.512695,333.476742 L295.394733,257.567113 L248.759359,327.906647 L380.489351,601.961529 L460.299757,613.941718 C460.299757,613.941718 670.662775,481.652874 672.343708,481.361932 C674.02408,481.07099 593.890625,341.540707 593.890625,341.540707 L587.512695,333.476742 Z" id="Fill-1" fill="#D9DFE2" fill-rule="nonzero"></path>
                <polygon id="Fill-3" fill="#ECEEEE" fill-rule="nonzero" points="354.174103 147.008764 353.84419 146.920753 353.93157 147.171894 353.234215 147.268874 353.611739 146.456031 353.446502 145.583205 352.982159 144.953112 353.446502 143.877356 353.990383 143.421603 353.941092 143.111601 353.273424 143.093102 353.021368 142.63791 353.321034 142.123296 353.379287 141.289711 353.70864 140.466777 354.241318 139.671312 354.009427 139.526682 353.417936 139.574331 352.091562 139.1197 351.471504 138.683007 351.530317 138.916209 351.094541 138.857347 350.464961 139.477351 350.590989 139.603482 350.193861 140.350176 350.019663 140.213394 349.099939 141.125461 347.514227 141.314377 347.359633 141.742661 346.930578 141.353617 345.411521 141.567199 344.45707 142.327908 341.944913 142.795433 341.411115 142.80216 340.918206 142.511779 339.290485 142.627259 337.847605 143.345364 336.452336 143.282579 335.674324 143.535401 334.661059 143.087496 333.648355 143.282579 330.51278 145.231721 329.013328 145.407183 327.981019 144.919477 327.494831 145.095499 326.09228 145.1538 325.780851 144.860616 325.274499 144.881918 323.541475 146.264873 322.702969 146.284493 321.359231 147.102942 320.892088 147.667448 319.392075 147.86253 318.126755 147.550847 316.84071 146.381474 316.334358 146.245252 315.965236 145.465483 312.829661 142.015104 312.498628 141.957364 312.187199 141.310453 312.01188 140.943272 310.667582 140.962892 309.869405 141.294756 309.518767 141.216275 308.953602 140.514987 310.064328 140.514987 310.590285 139.734658 311.310044 139.716158 312.264496 138.643766 312.791573 138.429063 312.616254 136.831406 312.770848 136.3437 312.439815 136.3437 311.251791 135.173766 311.271956 134.784162 311.251791 134.775753 310.979571 134.64794 310.803692 134.355877 310.394802 134.725301 309.830757 134.433238 309.285756 134.433238 308.817492 133.419706 309.012415 133.107462 308.273051 132.153352 307.629469 131.97789 306.772479 129.833666 306.422401 129.34652 306.383193 129.658204 305.955258 129.658204 305.214774 128.742774 304.144376 128.293188 303.403332 126.988154 301.651264 125.039011 301.338715 124.493566 299.898075 124.161701 299.411328 123.557394 298.455756 122.485002 297.795369 122.719325 297.463776 122.524242 296.703688 122.622344 296.197335 122.973268 295.594082 122.368401 294.73037 121.065609 295.082128 120.674323 294.14448 119.345184 293.754074 119.501026 293.675656 120.556601 293.909228 120.517921 293.988206 121.964782 293.089767 121.729898 292.816426 120.127196 292.386251 119.03238 291.683295 118.798617 291.683295 118.32885 291.410515 116.96047 291.019548 116.843869 290.316592 113.130016 288.168516 107.461415 286.956968 106.171517 286.910477 106.171517 286.567121 106.171517 286.567121 105.467427 285.43399 104.881619 284.379276 104.842378 284.379276 103.865284 282.114134 102.339942 281.254904 102.14486 280.325098 100.382952 279.623822 98.1608063 279.92741 96.2419355 279.652949 94.2092667 278.403312 90.4954137 278.267202 89.549152 278.4414 89.3849016 278.848051 89.878774 278.984161 90.2184864 279.235096 90.208396 279.244618 89.7134024 278.25656 88.5221666 277.910963 87.0898806 277.695875 86.7978176 277.71604 86.5825543 277.520556 86.3487918 277.658347 86.0763491 277.384446 85.6861843 277.501512 85.2180987 277.563686 84.7786027 277.578809 84.6720922 276.683731 84.3211682 275.475543 83.0940551 275.165234 82.451068 274.093717 82.1388241 273.43109 80.7749291 272.808232 81.0664315 271.834736 81.0271908 270.237262 79.9951601 269.437965 77.3043685 269.620006 76.5829 269.55167 75.3030922 269.222317 74.6152586 269.329861 74.1499759 269.716907 74.4790373 271.236524 74.5760179 270.646713 73.9464848 270.152124 73.8590341 269.310257 72.5517578 268.971382 72.2961326 268.912569 72.6470567 268.328919 71.944648 267.88026 70.5605721 265.826845 67.5496884 264.967054 67.0014396 264.732923 65.5556997 261.490924 60.7862716 261.530133 59.6914557 260.983452 58.8320842 260.787968 56.8380955 260.241287 56.1732457 260.241287 55.587438 258.483618 53.6719307 258.4052 52.9291601 258.600124 52.1084687 258.171068 51.2877772 255.163202 48.7466609 254.92963 47.9254089 253.015686 45.6595381 253.015686 44.4856803 251.921764 43.0786205 252.038829 42.3750906 251.960972 41.6710002 252.195104 41.3189549 252.390587 41.6311989 252.89806 41.6311989 253.249818 42.9608984 253.718642 43.5074654 253.835708 44.1723152 255.827509 45.8540599 255.827509 46.8692732 256.335542 47.8861682 257.701684 48.5123378 258.014234 49.4888709 260.475419 52.1084687 261.842682 52.8512393 261.998397 53.1640438 262.19444 52.5378742 262.896836 51.873585 263.288362 50.0365591 262.818978 49.5667918 263.444077 48.0038903 263.560583 46.9096351 264.343076 44.0557142 264.54136 43.7412279 263.867531 41.986047 264.31507 40.7297837 263.181939 38.0389921 261.720575 35.8269372 261.183416 33.9136722 260.169591 32.4180405 259.599945 32.1596124 258.930037 33.060467 257.523005 33.6081553 254.237317 33.060467 251.655705 33.7651181 249.777608 32.4331763 249.543476 33.317774 250.246432 34.3739097 250.208344 35.0381989 249.504828 33.9826237 248.450114 33.396816 248.216542 32.4976431 248.723455 32.2621989 248.29384 31.8327934 247.435169 31.9505155 246.379895 31.5990309 244.622786 31.1292635 244.348885 31.442068 245.09105 31.5990309 245.247885 31.9505155 244.271028 32.0671165 243.294172 31.9505155 242.161601 32.4191617 241.810403 32.0671165 241.836169 31.8255058 242.829269 31.7077837 243.64761 31.3579808 242.614741 31.4942021 241.154497 31.5334428 240.531639 31.9813475 239.154294 32.7319662 238.489987 33.0840115 237.161933 33.5139775 236.06913 34.5684315 235.874207 35.0381989 234.154626 35.0381989 232.279891 33.8660228 231.069463 33.7483006 229.311233 33.8660228 227.826344 32.9276092 227.241014 32.9276092 226.617036 33.317774 225.170235 32.3025607 223.492103 31.9505155 219.468732 31.637711 217.47637 30.9723006 214.898679 31.0900228 214.390086 31.2469856 214.388406 31.2402586 213.921262 29.8001246 213.180218 28.9799937 212.24257 28.8224703 211.304923 28.9799937 207.828792 28.549467 207.125276 27.923858 205.759134 27.8061359 203.922487 27.2988095 203.53208 26.71132 203.922487 26.5554784 203.883278 25.9304299 201.696553 24.7178919 200.563422 24.7178919 198.766544 24.2492457 198.337489 24.0149226 197.790808 24.4835688 196.696885 23.9370018 196.306479 23.9370018 194.705084 24.7571326 192.165481 24.9920163 189.978196 26.048152 188.72856 27.2595688 188.41657 28.666068 187.752263 29.1745155 187.596549 31.8327934 188.533636 33.2796544 189.157615 35.3521246 188.72856 36.5243006 187.383701 37.8870745 187.207822 38.3736593 185.455194 39.8552764 184.384237 40.2650616 182.124696 39.368131 180.137936 37.7306722 178.580791 36.4643184 176.190181 35.2344024 172.362293 33.6311391 170.683601 33.4354961 170.136919 33.7483006 168.145118 33.7483006 166.426097 32.8883685 164.824142 29.8001246 164.863351 28.1974218 163.573945 26.4775575 160.254089 26.0077901 158.49642 24.8748548 155.645388 24.7974945 154.043993 24.1707643 150.411028 24.8356141 147.872546 24.2884864 146.896249 23.3495123 145.709346 23.1174315 145.535148 23.5597304 145.883545 25.5458709 146.280113 25.9433233 145.13914 27.6816868 142.16152 29.5686044 142.16152 30.2631649 141.219391 31.4549614 140.028567 31.4056302 139.284722 31.9516367 139.234871 32.4982037 139.036587 33.1927643 139.54462 34.8206932 139.668407 36.0657449 139.370982 36.3908822 139.40851 36.8387869 139.097081 37.2502538 138.525194 38.2217417 137.730378 38.7195381 137.418949 38.9936625 136.784888 38.9936625 136.787689 39.0059953 133.581539 28.666068 132.288772 27.2455543 131.46931 27.0454267 130.97192 26.5229646 129.778296 26.0246076 129.405813 24.7543297 127.938848 23.4829307 127.416812 23.3085898 126.770429 22.3365414 126.994479 21.7384008 126.373301 20.3935656 126.025464 20.169333 126.63712 17.6775478 127.805539 16.2816997 128.575709 16.0580276 129.047894 15.4105559 129.619781 14.9867562 129.942972 13.167669 130.440362 12.6194202 129.743568 11.9220567 130.191107 11.1748015 130.614001 10.7756674 130.538944 10.4522118 129.868476 9.67916979 129.545284 8.28388223 130.465008 5.91710679 130.440362 4.27236042 130.639207 2.70329257 130.440362 2.10515202 130.605599 1.37751712 130.335059 1.06919725 128.889379 1.3416399 128.108566 1.18579822 125.921841 1.81084669 124.78759 0.833752989 123.382238 0.325305493 123.34303 0.871872536 122.444591 1.73292585 120.686921 1.53784346 120.570415 0.717152019 119.827691 0.168342649 118.617822 0.442467044 118.538285 1.14655751 117.484691 1.3416399 117.016428 2.12365121 116.35156 1.85064798 115.530418 1.85064798 114.476825 2.67133942 113.305605 2.67133942 112.640738 1.6157643 111.234826 1.53784346 110.610288 1.3416399 109.243025 1.57540242 108.149103 1.42012132 107.64163 1.53784346 106.704542 1.22391777 106.040235 1.38088061 105.532203 2.43645574 104.43828 2.43645574 103.462544 2.04516979 102.13393 3.33562859 101.353117 3.29638788 100.141568 2.63153813 99.0487659 3.02226349 97.0564043 3.10074491 95.9232732 2.94434265 93.4239994 4.8604105 91.973838 5.06390162 91.2529583 5.08352197 90.0262864 5.84311002 89.9685936 6.64193877 89.3255711 7.48000824 88.7598458 7.48000824 88.4288124 7.16888546 87.6894486 7.18850582 87.1444478 7.57811002 86.8515029 7.98733457 85.3912593 8.08543635 84.1640273 8.70880307 83.5215649 9.29348966 83.3462461 9.91741696 82.353146 10.9886884 80.7758365 11.4960147 79.3889691 11.5593604 78.6535261 11.5935559 75.7313586 11.3597934 75.0888962 10.6966254 74.8032329 9.71392585 74.4385921 9.59452197 74.4083454 9.60461244 73.4919823 10.5996447 71.8368155 10.9309485 70.1816487 10.4824832 69.3246588 10.4241827 68.2329769 10.9886884 66.6758318 11.2230115 65.5466216 10.9886884 64.1239063 9.46839111 63.5598613 9.04010679 63.3257294 8.22165767 63.3257294 7.63753166 63.5206526 7.34378691 63.2092236 6.9547433 62.2155634 7.30566737 61.7803469 7.7003168 60.9608853 7.62239596 59.9840289 8.71721179 59.7678209 11.5218015 58.6582151 12.9832376 58.4240832 15.108963 57.7424121 16.4537982 55.38653 18.6361423 54.8409691 18.6759436 53.7111988 19.475333 51.8022957 20.1177595 50.3812608 21.6374961 49.8356999 21.6576771 47.7901266 23.0226932 46.5248062 23.4313572 45.8039265 24.5424299 43.4480444 26.2376286 44.2658256 28.0314897 44.1263547 29.2793443 42.0555758 31.1550502 40.7275215 33.8918095 40.6502244 35.0253055 41.5094548 36.7457304 40.8451476 38.6606771 41.2742026 39.0906431 41.8595324 39.8339743 41.5094548 41.3189549 38.2668962 44.9941278 37.9151382 46.4404283 36.4313694 48.0425704 34.7907659 48.1995333 31.1975696 51.4441795 26.1581328 52.3825931 24.9163376 54.120396 22.9166945 56.9165769 22.9166945 58.9498063 21.9790467 58.9884864 18.3858504 60.864753 18.0346526 61.8810874 16.6276208 62.7012183 17.0577961 64.0314784 13.8947752 68.643383 13.6981716 70.1294848 11.276755 72.3964767 10.5351507 72.7877627 9.24630504 75.6018822 9.36281086 76.3838935 7.29371234 79.1206528 7.21529496 79.6285397 7.83983336 80.0983071 6.94195438 80.4497918 5.30023057 83.4589937 4.67569216 83.615396 3.93408782 84.3979679 4.01194507 85.6878661 3.46526393 86.7826819 3.56944701 88.4896528 3.58232987 88.6976286 3.07429728 89.8311246 3.15271466 91.8245527 4.28584577 90.5346544 4.71490085 91.785312 5.14451606 92.0201956 5.76961458 91.5128693 7.2533834 93.7400599 6.59019643 94.4054703 6.98116307 95.4991649 6.62940512 97.2588305 5.92644934 97.2588305 5.3405595 97.688236 6.82432832 99.9563491 7.83983336 105.312146 7.48863553 109.024877 6.23843848 110.783982 5.41785663 113.990509 5.13555407 116.099978 4.9109443 117.781722 3.58232987 120.205116 0.340891544 123.175638 2.09800093 124.583819 3.23113204 126.577247 4.20742839 126.73421 4.20742839 127.788664 3.77781319 127.867146 5.06609868 128.687837 4.3631429 129.196284 4.50317393 129.630735 4.75410954 130.408822 6.08216385 131.07199 7.2533834 130.760307 6.47257036 131.502517 5.06609868 131.541758 4.01194507 130.212619 3.11350597 131.112352 3.69883569 131.854562 3.69883569 132.248091 3.69883569 133.418024 3.19192335 133.965713 3.46526393 134.356438 4.63760372 133.730268 6.39527324 134.356438 5.26214213 135.060528 4.71490085 134.864325 3.85623057 134.629441 4.24607696 134.980926 4.20798852 135.974276 4.20742839 135.998381 4.63760372 136.779832 6.3549443 136.858314 7.0584602 136.936795 6.12137254 137.639764 7.0584602 138.577617 8.11317393 138.656659 8.38651451 139.203787 8.97184422 139.321509 10.3004587 138.851742 11.5500956 138.577617 12.9560071 139.36075 12.5269521 139.672994 9.9487007 139.712234 10.26125 140.14164 11.1210405 140.259362 11.5898644 140.767249 11.276755 141.235895 11.8620847 141.275696 10.6516565 142.604835 12.8395013 142.371073 12.7616441 143.229323 12.9963361 143.542128 14.2286092 143.179992 14.3238303 143.151963 15.1444121 144.051136 14.6750281 145.966083 15.8473679 147.569346 17.0191476 147.647267 17.7999606 147.959511 18.2682244 147.295221 19.128575 147.686507 18.7376084 148.077793 18.6983997 148.897924 19.1666635 149.367692 20.2605859 149.406372 20.6515525 150.969834 22.056904 151.712604 22.8102709 152.323078 22.8774858 152.377454 22.3308047 153.354548 22.2523873 154.136559 22.9951119 154.527845 22.291596 155.855863 22.6825626 156.677675 23.658859 156.834078 24.187056 158.466491 24.187056 159.635304 25.3358706 160.882598 26.3681794 160.492994 26.4073881 160.727317 25.978333 161.624247 26.6207953 162.248175 27.3612794 163.085123 27.0683345 163.70849 28.2378737 164.001674 31.0020863 165.433399 31.6255044 165.433399 32.9552391 165.433399 33.5764168 165.775915 33.7360521 165.863926 33.3456456 166.605575 34.204876 166.997982 35.5329303 168.873688 36.3137434 168.911808 38.2394501 170.210115 38.2400102 170.210115 38.4623795 170.35979 41.6646092 173.564074 42.7585316 173.681797 46.7040459 176.614759 51.7972546 178.466921 52.2890436 178.646307 54.0864819 177.082845 55.2184928 177.082845 55.6094594 176.574398 59.1645673 175.245819 59.2026557 174.737372 61.1552484 174.463808 67.9904431 174.424567 70.5692546 173.603876 72.9514625 174.737372 73.1861545 173.447474 74.1624509 173.21315 74.9135773 174.572 75.1773958 175.049616 77.9505704 175.440902 79.9821406 176.340074 84.4345673 174.190244 87.5600599 173.91612 90.2548171 171.650249 92.7160025 170.476391 95.5216642 170.104165 95.9580009 170.046986 98.7317356 168.327121 99.2638535 168.397194 101.113383 168.639926 104.667371 167.427388 104.879098 167.472234 106.893864 167.896595 108.535028 167.232305 112.323708 169.225734 114.433135 171.298204 115.721981 173.799519 115.682772 175.440902 116.385728 175.792947 116.971618 177.591853 118.299672 178.802709 120.173847 179.311717 125.174075 179.037593 126.18958 178.411984 126.931745 178.724789 129.313953 177.864856 130.095326 178.216902 131.42338 177.942777 131.931413 176.497037 132.868501 177.474131 133.258347 177.239808 133.302597 177.260549 134.001072 177.591853 134.821653 177.161326 135.446192 180.327491 136.345751 180.444653 136.814015 180.99178 138.338113 180.327491 139.118366 181.578149 138.766608 182.242999 138.766608 183.689299 139.703695 185.018438 139.898618 187.011866 139.196783 188.810772 139.938947 189.592223 139.126767 190.405066 138.922322 190.608558 139.313289 191.50717 137.672685 193.345317 136.38384 195.807391 137.672685 196.47168 137.657562 196.771591 137.595388 197.995902 136.500345 198.152864 137.516971 199.795929 139.118366 200.185533 136.852103 200.733782 136.266213 200.146853 136.111059 201.593714 135.876367 204.447635 134.898951 205.268326 133.649314 204.8378 133.572016 205.384927 134.665379 207.65248 135.250708 208.121126 135.250708 208.942939 136.188916 210.154356 136.188916 211.717818 136.969169 212.499829 137.516971 213.712367 138.845025 214.806062 138.454058 215.079625 139.85997 216.565727 142.203529 218.441433 142.672353 219.574929 144.548209 220.473541 144.703363 221.334595 145.601802 221.686079 145.827532 221.904706 146.851439 222.897496 147.203197 223.562346 148.765383 224.53944 148.804592 225.477853 149.625174 226.377587 149.585965 227.393921 150.174656 228.03859 150.797514 228.72306 151.148712 230.208041 150.562262 231.302856 150.837283 231.912209 151.108943 232.514273 152.593832 232.553514 153.21837 233.022721 153.21725 233.023842 151.734601 233.842852 152.281283 234.507701 152.281283 235.251032 155.132314 238.455877 155.235937 242.480853 156.799804 244.672167 156.565672 246.708199 154.922268 248.822152 155.860476 249.291359 155.860476 251.170428 156.642969 252.423328 156.642969 253.754149 158.599483 256.964039 158.520505 257.825653 159.146724 258.607664 159.146724 263.149496 157.113473 266.984435 156.487255 266.984435 154.218192 268.707663 154.140895 269.961123 151.32403 272.465241 151.246173 274.188469 150.776789 274.579755 150.776789 278.729179 149.524352 280.372805 149.212362 282.330356 147.80365 284.053023 147.80365 285.932092 147.568398 287.575717 147.646816 290.080957 147.413244 291.725703 147.446851 292.250968 147.725233 296.65826 150.776789 299.79023 152.419073 302.607713 154.9766 308.350871 155.365886 310.658225 157.944698 314.332837 157.944698 315.778577 160.678663 319.726753 160.678663 321.877144 160.014356 322.149587 160.757081 324.807864 160.913355 328.796402 162.436333 332.861179 162.280618 335.050811 162.749442 336.535792 162.006158 337.005559 162.632376 337.786449 163.005979 340.494058 163.707815 340.864042 164.174958 341.780593 163.628837 342.208877 163.628837 343.26165 164.447739 344.15802 164.54576 346.152569 165.483408 347.442467 166.733045 349.905663 167.982682 351.15632 168.257143 351.860411 170.016493 353.123961 170.052901 353.150309 170.326241 354.831493 172.006054 356.042349 173.099976 359.208514 173.060767 360.655375 174.15469 363.508735 174.817877 366.519058 176.262997 368.395325 176.302206 369.528821 177.788215 371.992016 177.691314 372.771225 178.255359 374.505664 177.94393 376.104443 177.339556 376.76705 176.872412 376.76705 176.36606 376.240664 175.821619 376.74743 175.821619 378.073205 176.600192 379.418041 177.515995 380.23649 178.430677 381.893008 177.729402 383.043322 177.963534 384.348916 177.593292 385.226226 177.652105 386.278438 178.314172 386.766705 178.255359 385.810352 179.112348 385.050764 180.319976 385.264906 180.592757 386.337299 180.163701 386.688223 180.651009 386.902926 181.390373 386.531821 182.364989 387.039147 182.423242 388.287002 182.949199 387.974197 185.519608 389.183932 186.007476 388.948488 186.551917 389.144131 186.883511 388.403603 187.818358 388.228141 188.927404 386.960666 190.17424 387.23423 190.427976 386.863685 191.712901 386.785204 193.231397 387.33121 194.030694 386.981407 195.256806 386.902926 195.569355 386.493141 196.134521 386.025616 196.775863 385.850714 197.321984 386.103537 197.5746 385.245847 198.393501 384.875302 201.158274 384.894923 202.365902 385.53791 203.183123 385.245847 203.203847 384.875302 204.761553 384.563619 207.137599 385.168486 207.840555 385.700478 210.319664 386.233591 210.649017 385.913499 210.339269 385.264906 211.064629 384.528302 211.908176 384.615753 212.96289 385.158396 214.764249 385.119155 214.832584 384.847273 214.057373 384.19868 214.609655 383.248495 215.916425 382.851603 217.494854 382.793302 218.056659 383.219344 219.218356 383.113394 220.351487 382.41547 222.328165 381.893008 222.328165 381.562265 223.575002 381.191721 224.33397 380.354212 227.878996 378.073205 228.75447 377.098915 228.735985 376.82479 229.398052 376.708189 234.792047 371.387709 235.025619 370.978485 235.551016 370.958864 236.467379 369.866852 237.42127 369.457627 237.694051 368.015811 239.344176 366.441137 241.492252 362.844446 242.273625 361.319664 243.249922 361.280423 243.836372 360.186729 243.836372 359.678281 244.851317 358.504984 245.483697 357.276189 246.730533 356.4768 247.217281 355.872493 248.268634 355.385347 248.580623 354.937443 249.028722 354.937443 250.450878 353.261304 250.683889 352.344753 251.424373 351.448383 251.930726 349.460561 252.702016 347.911674 252.858851 346.308971 253.48395 344.432144 253.17084 344.315543 253.795939 343.494291 253.805461 343.238105 253.835708 342.438716 254.34262 341.578784 254.558828 340.124074 254.520739 339.636929 254.189706 339.69579 253.956694 340.571979 253.21621 340.338777 252.747947 340.942524 252.80676 340.025412 252.300407 339.071863 252.08644 338.798299 252.572628 338.467556 253.099144 338.486616 253.468826 337.220262 254.130893 336.693876 254.520739 336.069948 255.844873 335.738645 257.579017 334.081005 262.116023 333.185196 265.466125 331.664898 267.354864 329.656895 267.666293 328.33168 268.308755 327.357389 268.131196 326.762612 267.349822 327.23238 267.153779 326.333207 267.42824 326.333207 267.505537 325.277632 267.974361 324.691263 267.974361 323.831892 268.599459 322.189948 268.365328 321.993745 268.443745 320.587246 268.87336 320.047966 268.931613 318.644831 268.678997 318.68295 268.6017 317.592058 268.01637 318.839352 268.01637 319.736283 267.647248 319.795144 267.354864 318.66389 267.60804 315.428213 266.998065 314.292475 266.958856 313.081058 266.412735 312.181325 265.904142 311.947562 266.569009 311.399874 266.529801 310.696344 265.046032 308.702916 265.592713 307.882225 265.435878 307.100213 265.826845 306.592326 265.866054 305.771635 265.358021 305.185267 265.358021 304.754179 265.904142 304.676259 266.881559 305.302428 267.389031 304.638139 268.639788 304.638139 269.537667 303.972168 269.380833 302.799992 272.145045 300.946709 273.353233 300.908029 273.29498 300.186561 273.781168 300.030719 274.327289 299.563194 274.365937 299.035687 276.449039 297.808574 276.645082 297.029365 277.248336 296.872963 277.462303 295.528128 277.832546 296.346577 278.455964 296.073574 279.721844 294.534217 279.741449 293.89123 280.247801 294.222533 282.330902 292.858078 283.830915 292.155669 283.889728 291.883226 285.155608 292.039068 288.441857 290.291175 288.714637 289.548965 289.22323 289.509163 292.660151 287.632897 292.582854 286.655242 293.441525 286.538642 294.45703 285.131021 294.45703 284.504852 295.590161 283.059112 296.254468 282.942511 296.370974 281.886936 296.839798 281.222086 296.176051 281.144165 295.941919 281.339808 295.745875 281.065684 296.48804 280.322352 297.152347 280.322352 297.308061 279.814465 296.976468 279.350864 297.522589 279.077301 298.047985 278.317713 297.814414 276.309709 297.541633 276.095007 296.509885 276.056887 296.236544 275.686343 296.275753 275.393719 297.054325 275.276558 297.034721 272.957432 296.742896 272.528026 296.957424 272.508966 297.327106 269.955517 297.132743 268.591622 297.677183 268.046176 297.639095 266.75852 297.34839 266.445155 297.34839 265.117137 297.659819 264.803212 297.07393 263.709517 296.839798 261.87137 297.230764 261.480645 297.152347 261.168961 296.957424 260.776554 297.07393 260.229987 298.128643 258.705205 297.855303 258.470882 298.128643 257.845834 298.323566 256.633296 297.952764 256.404579 297.816654 256.320491 297.816654 255.813165 296.703688 254.869706 295.36107 254.674624 293.529464 252.900944 293.704783 252.121175 293.179387 250.581257 292.691518 249.99601 293.198431 249.15794 292.594617 248.631554 292.380089 247.618023 292.06866 246.994656 292.361605 246.917296 291.79644 245.55228 291.621121 244.402527 292.322397 243.81784 292.458507 242.609226 291.678814 241.849638 291.581912 239.939176 291.893342 238.691882 292.5162 238.282097 292.945255 238.418318 293.237079 237.814572 292.555408 235.90411 291.873737 236.002212 290.783736 234.773978 289.322932 233.507063 289.264119 232.31807 290.121669 230.154785 291.231835 226.723465 291.581912 226.21726 291.484451 225.417871 291.231835 225.125808 291.424518 225.131414 291.873737 225.144868 292.964859 224.696963 294.833993 221.968052 295.594082 220.330593 295.594082 219.162341 296.431467 218.129189 297.288457 216.803414 296.957424 216.550591 296.996632 215.926104 297.735996 215.068974 297.833458 214.697869 298.47704 214.483167 299.995537 214.483167 300.930384 213.177572 302.702057 212.553645 302.391188 212.04744 302.995562 211.384272 303.403332 211.24805 305.098268 209.181747 305.175565 208.860533 305.234378 208.61668 309.494682 203.899386 309.963506 202.805131 311.057428 201.748995 312.112142 201.437312 312.541197 200.654179 313.04979 200.459658 315.94003 197.254252 316.720283 197.019929 320.236743 193.305516 322.071709 191.898456 323.51739 190.882682 325.23585 190.569317 327.696476 188.458727 333.438308 183.376495 336.172834 180.053927 337.73502 178.451225 338.085658 177.356409 341.601557 172.587541 341.679414 171.727049 343.55415 169.109133 343.671776 167.466629 346.601225 161.876509 347.265532 161.290701 346.75806 160.547931 346.833677 159.966608 347.982491 158.719874 348.391382 158.797795 349.131306 157.880684 350.350136 155.309296 352.130771 152.814147 352.053473 151.468751 352.383387 150.923305 352.57831 149.695071 352.169979 149.013965 352.928947 147.726309 353.379287 147.609147 354.037993 147.599617 354.144417 147.803108 354.47321 147.628207"></polygon>
                <polygon id="Fill-5" fill="#ECEEEE" fill-rule="nonzero" points="25.6101074 161.938061 25.0606256 161.808006 24.8460981 162.200413 24.976607 162.657848 25.6750818 163.097344 26.113659 163.134342 26.0296403 162.424085"></polygon>
                <polygon id="Fill-7" fill="#ECEEEE" fill-rule="nonzero" points="346.327212 279.915594 346.073476 278.979423 346.365301 278.513019 346.365301 277.401386 346.034267 275.97863 346.268399 275.432623 346.384905 272.781633 345.606333 271.768102 345.509431 269.468035 345.119585 268.669207 344.710694 268.825048 343.814496 267.675295 343.69799 266.642144 342.801791 266.251979 343.308143 265.199767 342.957506 264.166615 341.633372 265.37579 341.964406 266.076517 341.068207 266.681384 340.192173 266.096698 339.627568 266.115758 340.464393 267.24589 340.484558 267.909619 341.107416 268.552606 341.107416 268.864289 340.075667 269.818959 340.075667 271.359438 339.451689 272.371848 338.771138 272.138646 337.893423 273.113497 337.776918 273.971187 337.115971 274.458333 336.550806 274.106848 336.452784 272.996336 335.986201 272.762013 335.323014 273.406682 335.226112 274.633795 336.258421 275.666947 336.511597 276.114851 336.121751 276.485396 335.596354 276.328993 334.44642 276.543136 334.700156 277.538168 335.71342 277.830231 335.84897 278.454158 335.400871 279.000165 334.914683 278.434538 334.134991 278.72604 333.960792 279.330347 332.538077 280.540082 332.519032 279.408829 332.752604 279.097145 332.382362 278.472657 331.428471 279.389208 332.032285 279.720512 331.817197 280.168977 330.61069 280.871386 331.077833 281.845677 331.760064 282.060379 331.701251 282.566585 331.058229 282.742047 330.220843 283.307674 330.104337 282.645066 329.617589 282.546964 330.104337 281.727955 329.656798 281.397211 327.766379 282.994869 327.474555 284.496667 327.708686 285.080793 327.416862 285.72378 326.774399 285.509077 326.345344 285.139654 326.364389 283.793698 325.877641 283.735958 324.670573 284.983252 323.34588 284.047641 323.073659 284.437806 322.605956 284.515727 322.781274 285.977724 322.372384 285.880182 322.022306 286.016404 322.002702 285.237195 321.49635 284.964192 320.931184 285.802262 320.405228 284.964192 318.359655 286.853913 317.815214 286.913334 317.406323 286.523169 316.35497 286.502989 315.886707 287.225018 316.08163 288.822675 314.543529 291.201223 314.602342 291.649127 313.140978 293.189045 313.140978 293.968814 313.939155 294.631982 313.257484 295.606833 313.744232 297.086769 313.686539 298.354804 315.108694 301.102215 315.010672 301.861803 315.907431 302.856835 315.925915 303.3053 315.22576 304.026769 315.458772 304.727496 314.972024 307.105483 313.939155 307.768651 313.666935 309.113486 313.063681 309.230087 312.751132 310.107397 311.816285 310.866985 311.719943 312.797628 311.096525 313.499476 309.595953 313.849279 309.226831 314.337546 309.343337 316.013124 308.214126 317.202118 308.330632 318.566573 307.999599 319.385022 308.233731 320.00895 308.291423 321.646409 309.616677 323.263686 309.420634 324.434181 309.654766 325.174148 310.316832 325.563753 310.66747 325.466211 310.336437 325.797515 309.304128 326.051459 309.362941 327.12273 309.518655 328.818489 309.362941 330.982895 309.733183 331.410619 309.791996 332.113588 310.375645 332.463391 311.057316 333.515602 311.621921 333.827846 312.070021 334.529134 312.751132 335.328523 313.472011 335.07514 313.724627 335.426064 314.543529 335.622268 315.419563 336.7709 316.063146 336.907682 316.08163 337.355026 316.35497 337.60953 317.016477 337.180685 318.107039 337.278226 319.33371 336.537698 320.327371 335.386824 323.560407 335.07514 324.554627 335.309463 326.247883 334.646856 326.715586 333.730305 327.533368 333.613704 328.078928 331.995866 328.89671 330.670651 328.935918 329.735601 329.967107 329.112234 329.870205 327.552136 329.617589 327.337433 330.337909 326.792547 330.786008 325.076047 330.669503 324.803604 331.038624 324.803604 332.01268 323.283867 332.73356 319.794808 333.279121 317.903966 334.077298 317.105137 334.524837 315.019774 335.927388 312.524625 337.270565 308.334278 338.224457 306.911522 338.224457 305.02068 339.257886 303.129838 339.41304 302.40837 340.582019 300.537709 341.185833 297.652396 341.672581 295.547412 342.139724 295.001966 342.411945 293.481108 341.964406 292.72152 342.236626 291.415926 343.308143 289.934308 343.172033 289.21284 343.912517 288.33553 343.737198 287.087675 343.308143 286.678451 343.775287 285.802262 343.69799 284.534787 343.308143 284.261783 343.288539 283.03411 343.97077 282.702806 344.477122 283.092971 344.69165 284.165363 345.567124 285.334176 346.209586 285.489457 346.579828 284.82685 346.638641 283.93104 346.910862 283.599737 347.028488 282.683746 347.39761 282.332262 347.338797 281.280611"></polygon>
                <polygon id="Fill-9" fill="#ECEEEE" fill-rule="nonzero" points="344.257722 289.671284 343.958616 290.165156 343.899802 290.84346 343.919407 291.521763 344.354623 290.542988 344.703581 289.932515 344.974681 289.04119 344.568591 289.651663"></polygon>
                <polygon id="Fill-11" fill="#ECEEEE" fill-rule="nonzero" points="338.634076 271.51427 338.868207 271.222207 338.65368 270.793362 338.51757 271.085986"></polygon>
                <polygon id="Fill-13" fill="#ECEEEE" fill-rule="nonzero" points="339.471461 268.533153 339.491065 268.162609 338.614471 269.039919 338.848603 269.468204"></polygon>
                <polygon id="Fill-15" fill="#ECEEEE" fill-rule="nonzero" points="337.583115 272.13859 337.797642 271.164299 337.232477 270.831874 337.057158 270.618293 336.862235 270.813375 336.355883 271.612204 337.057158 271.651445"></polygon>
                <polygon id="Fill-17" fill="#efaa3f" fill-rule="nonzero" points="258.430462 250.369806 258.668515 250.18089 259.161424 250.246478 259.469492 250.824998 260.094031 250.919176 260.374093 251.255525 260.691123 251.049791 261.268611 251.133878 261.613647 251.404639 261.98669 251.488726 262.21018 251.835166 262.778145 252.184969 263.337709 252.727612 265.071854 254.633029 265.331751 256.595064 265.255574 265.28576 264.992316 266.244355 265.848746 271.01098 267.485989 271.868109 268.230394 272.575563 268.602876 273.096904 269.122671 273.209021 270.872499 274.959156 271.207453 275.778726 272.397157 277.380869 272.844136 278.646101 273.17853 279.353555 273.216058 279.913016 272.54671 280.135567 272.323781 280.657468 271.765337 280.732586 271.579376 281.142371 271.839834 281.514597 271.727809 281.997819 272.249284 282.594277 272.211756 284.493528 271.876802 285.312537 271.169925 285.908996 270.127534 286.206665 269.606619 287.584014 269.457626 288.552699 268.93727 289.446266 269.309193 290.675621 269.085703 291.680744 268.081401 291.904416 267.820943 291.159964 268.155897 290.527067 267.485989 289.595941 266.890017 289.111038 266.220668 288.738812 265.364799 287.919242 264.471961 286.839562 264.359936 286.021113 263.913517 284.866315 263.801492 284.009185 264.471961 283.078059 264.732418 281.886823 265.811218 280.732586 265.923242 279.540229 265.923242 278.125321 265.438735 277.305751 264.06251 276.971084 262.983711 277.008082 262.536732 277.491864 261.903231 277.491864 261.494341 277.715536 260.639031 277.194195 260.564535 276.561298 260.117556 276.039397 259.932155 275.555054 259.5972 274.996715 258.223776 275.326898 258.117353 274.834707 257.670373 273.844159 256.961256 272.965728 256.793779 272.479143 257.334299 272.199413 258.117353 271.283983 258.117353 270.554667 258.28483 270.013705 258.135837 269.583179 258.098308 268.854423 258.322358 268.443516 259.45997 267.602644 260.186451 267.266295 260.466513 266.742712 260.95102 266.612096 260.876524 266.219129 260.31752 265.864841 260.242463 265.378256 260.018414 264.705558 260.279992 264.462827 260.484997 263.921305 260.018414 263.117431 260.428985 262.444733 260.242463 261.827533 260.148923 261.042718 259.813408 260.145788 259.981446 259.285856 261.138102 258.090135 261.138102 257.791906 261.39912 257.435937 261.343107 256.352332 261.044561 255.586578 260.167967 254.950318 260.055942 254.446355 260.63399 253.137958 260.671519 252.76461 260.037458 252.559437 259.310977 252.128911 259.068443 251.400155 258.713885 251.119864"></polygon>
                <polygon id="Stroke-19" stroke="#ECEEEE" stroke-width="0.56" points="258.430462 250.369806 258.668515 250.18089 259.161424 250.246478 259.469492 250.824998 260.094031 250.919176 260.374093 251.255525 260.691123 251.049791 261.268611 251.133878 261.613647 251.404639 261.98669 251.488726 262.21018 251.835166 262.778145 252.184969 263.337709 252.727612 265.071854 254.633029 265.331751 256.595064 265.255574 265.28576 264.992316 266.244355 265.848746 271.01098 267.485989 271.868109 268.230394 272.575563 268.602876 273.096904 269.122671 273.209021 270.872499 274.959156 271.207453 275.778726 272.397157 277.380869 272.844136 278.646101 273.17853 279.353555 273.216058 279.913016 272.54671 280.135567 272.323781 280.657468 271.765337 280.732586 271.579376 281.142371 271.839834 281.514597 271.727809 281.997819 272.249284 282.594277 272.211756 284.493528 271.876802 285.312537 271.169925 285.908996 270.127534 286.206665 269.606619 287.584014 269.457626 288.552699 268.93727 289.446266 269.309193 290.675621 269.085703 291.680744 268.081401 291.904416 267.820943 291.159964 268.155897 290.527067 267.485989 289.595941 266.890017 289.111038 266.220668 288.738812 265.364799 287.919242 264.471961 286.839562 264.359936 286.021113 263.913517 284.866315 263.801492 284.009185 264.471961 283.078059 264.732418 281.886823 265.811218 280.732586 265.923242 279.540229 265.923242 278.125321 265.438735 277.305751 264.06251 276.971084 262.983711 277.008082 262.536732 277.491864 261.903231 277.491864 261.494341 277.715536 260.639031 277.194195 260.564535 276.561298 260.117556 276.039397 259.932155 275.555054 259.5972 274.996715 258.223776 275.326898 258.117353 274.834707 257.670373 273.844159 256.961256 272.965728 256.793779 272.479143 257.334299 272.199413 258.117353 271.283983 258.117353 270.554667 258.28483 270.013705 258.135837 269.583179 258.098308 268.854423 258.322358 268.443516 259.45997 267.602644 260.186451 267.266295 260.466513 266.742712 260.95102 266.612096 260.876524 266.219129 260.31752 265.864841 260.242463 265.378256 260.018414 264.705558 260.279992 264.462827 260.484997 263.921305 260.018414 263.117431 260.428985 262.444733 260.242463 261.827533 260.148923 261.042718 259.813408 260.145788 259.981446 259.285856 261.138102 258.090135 261.138102 257.791906 261.39912 257.435937 261.343107 256.352332 261.044561 255.586578 260.167967 254.950318 260.055942 254.446355 260.63399 253.137958 260.671519 252.76461 260.037458 252.559437 259.310977 252.128911 259.068443 251.400155 258.713885 251.119864"></polygon>
                <polygon id="Fill-21" fill="#efaa3f" fill-rule="nonzero" points="216.593559 294.579119 217.122316 294.629572 218.36187 294.769156 219.294477 295.246211 219.796908 295.657118 220.309982 295.694116 221.224105 295.041038 222.370119 294.910423 222.883192 295.152594 223.125726 295.125126 223.442756 295.255741 223.54974 295.325814 224.327753 295.91947 225.297888 296.138657 226.695957 295.694116 228.214454 293.489909 230.657155 290.457163 233.695829 288.40151 235.447897 287.789355 235.886474 287.425538 235.970493 287.051069 235.858468 286.584665 236.119486 286.065567 235.970493 285.598042 236.398427 284.831727 237.834586 284.085032 238.654047 283.841179 239.34468 283.505391 240.407236 283.112423 241.82323 283.150542 242.066324 283.449332 242.606843 283.374775 243.668839 283.52389 244.097894 283.449332 244.298978 283.430833 244.414364 285.276268 246.237568 285.349704 246.981973 285.498819 247.24187 286.02072 247.837843 285.909164 248.172797 285.387263 249.58655 285.759489 251.037832 286.542061 251.93123 287.770856 252.861036 287.882972 254.46131 288.068525 255.392237 288.813538 255.94956 289.483433 257.103416 289.55799 257.177912 290.452678 256.693965 291.234689 256.842958 291.979142 256.693965 292.724155 256.80599 293.357051 256.768462 293.989948 256.359011 294.734961 256.246986 296.298984 255.689663 297.193672 256.099113 297.678014 256.954983 297.528339 256.583061 298.310911 255.801687 298.868689 255.801687 299.762817 255.689663 300.805499 255.057282 301.029171 255.057282 301.662628 255.912592 302.40708 256.17361 303.26421 255.577638 303.636436 255.577638 304.641559 256.17361 305.125901 256.433507 305.870914 255.764159 306.801479 254.758736 307.583491 254.423782 308.17995 253.716905 308.253946 253.569033 308.962521 253.866458 309.817969 253.493976 310.451987 253.457008 312.015449 253.19655 312.611347 253.122054 314.362043 247.411028 320.041295 246.578123 319.347856 244.844539 318.992447 243.427425 319.198181 242.68134 319.496971 242.327341 319.161182 241.227258 318.637599 240.42516 318.693657 240.071161 318.0019 238.878657 317.796727 237.144513 318.042822 236.710977 317.527647 236.339054 317.080864 236.339054 316.521404 235.855667 316.11274 235.185759 316.075181 234.217864 315.441723 233.510988 315.404164 232.171731 314.958502 231.575759 315.181053 230.422463 314.958502 229.902108 314.101373 228.933653 313.35636 228.598699 312.499791 228.524202 311.680221 228.301273 310.487864 228.561731 309.817969 227.742829 309.222631 226.854472 308.863859 226.648907 308.359336 226.704919 308.022987 226.685875 307.743257 225.996362 307.33179 225.492251 306.864825 224.598292 306.191567 223.591749 305.574927 222.118063 303.313541 221.709172 302.603845 221.466638 302.622904 220.88803 302.155379 220.645497 301.407563 220.160429 300.903601 219.93806 300.025169 219.433948 299.146738 219.154446 298.960064 219.023937 298.436481 218.613926 297.853476 217.951299 297.42295 217.588339 297.031103 216.851776 296.451462 216.814808 295.90994 216.702223 295.526502 216.842814 295.087567 216.628286 294.582483 216.594679 294.57968"></polygon>
                <polygon id="Stroke-23" stroke="#ECEEEE" stroke-width="0.56" points="216.593559 294.579119 217.122316 294.629572 218.36187 294.769156 219.294477 295.246211 219.796908 295.657118 220.309982 295.694116 221.224105 295.041038 222.370119 294.910423 222.883192 295.152594 223.125726 295.125126 223.442756 295.255741 223.54974 295.325814 224.327753 295.91947 225.297888 296.138657 226.695957 295.694116 228.214454 293.489909 230.657155 290.457163 233.695829 288.40151 235.447897 287.789355 235.886474 287.425538 235.970493 287.051069 235.858468 286.584665 236.119486 286.065567 235.970493 285.598042 236.398427 284.831727 237.834586 284.085032 238.654047 283.841179 239.34468 283.505391 240.407236 283.112423 241.82323 283.150542 242.066324 283.449332 242.606843 283.374775 243.668839 283.52389 244.097894 283.449332 244.298978 283.430833 244.414364 285.276268 246.237568 285.349704 246.981973 285.498819 247.24187 286.02072 247.837843 285.909164 248.172797 285.387263 249.58655 285.759489 251.037832 286.542061 251.93123 287.770856 252.861036 287.882972 254.46131 288.068525 255.392237 288.813538 255.94956 289.483433 257.103416 289.55799 257.177912 290.452678 256.693965 291.234689 256.842958 291.979142 256.693965 292.724155 256.80599 293.357051 256.768462 293.989948 256.359011 294.734961 256.246986 296.298984 255.689663 297.193672 256.099113 297.678014 256.954983 297.528339 256.583061 298.310911 255.801687 298.868689 255.801687 299.762817 255.689663 300.805499 255.057282 301.029171 255.057282 301.662628 255.912592 302.40708 256.17361 303.26421 255.577638 303.636436 255.577638 304.641559 256.17361 305.125901 256.433507 305.870914 255.764159 306.801479 254.758736 307.583491 254.423782 308.17995 253.716905 308.253946 253.569033 308.962521 253.866458 309.817969 253.493976 310.451987 253.457008 312.015449 253.19655 312.611347 253.122054 314.362043 247.411028 320.041295 246.578123 319.347856 244.844539 318.992447 243.427425 319.198181 242.68134 319.496971 242.327341 319.161182 241.227258 318.637599 240.42516 318.693657 240.071161 318.0019 238.878657 317.796727 237.144513 318.042822 236.710977 317.527647 236.339054 317.080864 236.339054 316.521404 235.855667 316.11274 235.185759 316.075181 234.217864 315.441723 233.510988 315.404164 232.171731 314.958502 231.575759 315.181053 230.422463 314.958502 229.902108 314.101373 228.933653 313.35636 228.598699 312.499791 228.524202 311.680221 228.301273 310.487864 228.561731 309.817969 227.742829 309.222631 226.854472 308.863859 226.648907 308.359336 226.704919 308.022987 226.685875 307.743257 225.996362 307.33179 225.492251 306.864825 224.598292 306.191567 223.591749 305.574927 222.118063 303.313541 221.709172 302.603845 221.466638 302.622904 220.88803 302.155379 220.645497 301.407563 220.160429 300.903601 219.93806 300.025169 219.433948 299.146738 219.154446 298.960064 219.023937 298.436481 218.613926 297.853476 217.951299 297.42295 217.588339 297.031103 216.851776 296.451462 216.814808 295.90994 216.702223 295.526502 216.842814 295.087567 216.628286 294.582483 216.594679 294.57968"></polygon>
                <polygon id="Fill-25" fill="#efaa3f" fill-rule="nonzero" points="247.41086 320.04152 253.121885 314.361707 253.196942 312.611571 253.45684 312.015673 253.494368 310.452211 253.86629 309.818193 253.568865 308.962185 253.717297 308.25361 254.424174 308.180174 254.759128 307.583715 255.763991 306.801143 256.433899 305.870578 256.173442 305.126125 255.57747 304.641783 255.57747 303.6361 256.173442 303.263873 255.912424 302.407305 255.057114 301.662292 255.057114 301.029395 255.689494 300.805723 255.801519 299.763041 255.801519 298.868914 256.582892 298.310574 256.955375 297.528003 256.098945 297.677678 255.689494 297.193335 256.247378 296.299208 256.358843 294.734625 256.768854 293.990172 256.805822 293.356715 256.693797 292.724379 256.84279 291.979366 256.693797 291.234353 257.177744 290.452342 257.103248 289.558214 255.949952 289.483657 255.392069 288.813201 254.461702 288.068749 252.860868 287.882636 251.931062 287.77108 251.037664 286.541725 249.586382 285.759713 248.172629 285.386927 247.837674 285.908828 247.242263 286.020944 246.981805 285.499043 246.2374 285.349928 244.414196 285.275932 244.265203 282.891778 243.855752 281.290757 244.302171 280.508185 246.312456 279.465503 247.391256 279.465503 252.637938 277.268584 253.568865 277.081911 256.644506 275.843586 258.173085 275.339062 259.59692 274.996547 259.931875 275.554886 260.117836 276.039229 260.564255 276.56113 260.638751 277.194027 261.494061 277.715928 261.903512 277.491696 262.537012 277.491696 262.983431 277.007914 264.06223 276.970915 265.439015 277.306143 265.923522 278.125713 265.923522 279.540061 265.810937 280.732418 264.732138 281.886655 264.472241 283.077891 263.801772 284.009578 263.913237 284.866146 264.360216 286.020944 264.472241 286.839394 265.364519 287.919074 266.220948 288.738644 266.890297 289.11087 267.486269 289.595773 268.155617 290.526899 267.821223 291.159796 268.081121 291.904809 269.085983 291.680576 269.309473 290.675453 268.93755 289.446098 269.457906 288.553091 269.606899 287.584406 270.127254 286.206497 271.169645 285.908828 271.877082 285.312369 272.212036 284.49336 272.249004 282.59467 271.727529 281.99765 271.839553 281.514429 271.579656 281.142203 271.765057 280.732418 272.323501 280.65786 272.54643 280.135398 273.216339 279.912847 273.17881 279.353387 272.843856 278.645933 272.397437 277.3807 271.207173 275.779119 270.872779 274.959549 269.122951 273.209413 268.602596 273.097297 268.230114 272.575956 267.486269 271.867941 265.848466 271.011373 264.992596 266.244187 266.257917 261.626116 271.207173 261.552679 272.062483 261.366006 272.286533 260.99378 273.030377 260.844665 273.067906 261.290888 273.737254 261.477562 274.369634 261.924906 275.039543 261.998342 275.561018 262.557802 275.411465 263.004586 276.937243 262.557802 278.053571 261.775791 278.612574 261.626116 279.021465 261.290888 279.616877 261.552679 279.691373 261.887347 280.361282 261.924906 280.994222 262.334691 282.073021 261.924906 283.524303 261.812789 283.896785 261.030778 283.636328 260.43544 284.00825 260.099091 284.938056 260.397881 285.644933 260.248767 286.351809 260.770108 287.282736 260.657991 287.766683 260.248767 289.701352 259.652868 290.445197 259.950537 291.264098 259.689867 291.636581 259.243083 292.826844 259.093969 293.534281 258.348956 294.61308 258.200402 295.394453 257.566944 295.990986 256.747374 296.95776 257.009166 297.404739 256.486704 297.586219 256.404859 297.957581 256.633576 297.762658 257.846114 297.489318 258.470602 297.762658 258.705486 296.707384 260.229707 296.590879 260.776835 296.786362 261.168681 296.864779 261.480364 296.473813 261.87165 296.707384 263.709237 297.293834 264.803492 296.981845 265.116857 296.981845 266.445436 297.27311 266.758801 297.311198 268.045896 296.766757 268.591902 296.96056 269.955797 296.590879 272.509247 296.376911 272.527746 296.668736 272.957151 296.68834 275.276838 295.909207 275.393439 295.870559 275.686623 296.143339 276.057167 297.175088 276.095287 297.448429 276.30999 297.68144 278.317432 297.156604 279.077581 296.609923 279.350584 296.942076 279.814746 296.786362 280.322072 296.122055 280.322072 295.37989 281.065403 295.575373 281.340088 295.809505 281.143885 296.473813 281.222366 296.004429 281.886655 295.887923 282.94223 295.223616 283.058831 294.091045 284.504571 294.091045 285.131301 293.074979 286.538922 292.216309 286.655523 292.293606 287.632616 288.856685 289.508883 288.348652 289.548684 288.075311 290.290894 284.789063 292.039348 283.523183 291.883507 283.46437 292.155949 281.964917 292.857797 279.881816 294.222253 279.375463 293.89151 279.355299 294.534497 278.089979 296.073293 277.466 296.346857 277.095758 295.528408 276.882351 296.873243 276.278537 297.029085 276.083054 297.808293 273.999952 299.035967 273.961304 299.563474 273.414622 300.030999 272.928995 300.186841 272.986688 300.90831 271.77906 300.946429 269.014847 302.800272 269.171682 303.972448 268.273243 304.637859 267.023046 304.637859 266.515574 305.302709 265.538157 304.675978 264.991476 304.75446 264.991476 305.184986 265.500069 305.771915 265.46086 306.592046 265.069893 307.099933 265.226728 307.882505 264.680047 308.702636 266.163816 310.696625 266.203024 311.400154 265.538157 311.947282 266.04619 312.181605 266.592871 313.081339 266.632079 314.292755 267.242055 315.428494 266.988318 318.66361 267.281263 319.794864 267.650385 319.736563 267.650385 318.839072 268.235155 317.592339 268.312452 318.68323 268.565068 318.645111 268.507375 320.048247 268.07776 320.587526 267.998782 321.994025 268.233474 322.190229 267.608376 323.831612 267.608376 324.691544 267.139552 325.277352 267.061695 326.333487 266.787794 326.333487 266.983837 327.2321 267.765211 326.762332 267.94221 327.357109 267.299747 328.3314 266.988318 329.656615 265.09958 331.664618 261.750038 333.184915 257.212472 334.081285 255.478888 335.738925 254.154194 336.070229 253.764348 336.694156 253.102841 337.219982 252.733159 338.486896 252.206643 338.467276 251.720455 338.798579 251.933862 339.071583 252.440214 340.025692 252.381962 340.942243 252.849665 340.338497 253.590149 340.572259 253.823721 339.69551 254.154194 339.636649 254.192843 340.123794 253.976635 341.579064 253.469162 342.438996 253.438916 343.238385 252.413328 343.267536 250.623732 342.83813 250.138664 342.945201 250.02664 342.538219 250.269173 341.678847 250.362714 340.98709 250.530191 340.613742 250.040083 339.970755 249.509085 339.386629 248.968565 339.082794 248.879505 338.929195 248.917034 337.191392 248.99153 335.701927 249.364013 334.100906 249.411063 330.073688 249.094033 328.897027 248.759639 327.90704 248.72211 326.915932 248.815091 326.617142 248.778123 324.20608 248.162546 322.935802 247.864 321.589846 247.565454 320.169893"></polygon>
            </g>
            <g id="Zoomed-In" transform="translate(355.678821, 327.071325)">
                <path d="M365.960011,183.154504 C365.960011,284.272771 284.05418,366.246055 183.01787,366.246055 C81.981559,366.246055 0.075729,284.272771 0.075729,183.154504 C0.075729,82.035677 81.981559,0.062953 183.01787,0.062953 C284.05418,0.062953 365.960011,82.035677 365.960011,183.154504" id="Fill-29" fill="#B3C1C8" fill-rule="nonzero"></path>
                <path d="M126.057526,357.197204 C52.9109513,333.233748 0.075729,264.36908 0.075729,183.154504 C0.075729,82.035677 81.981559,0.062953 183.01787,0.062953 C207.32568,0.062953 230.526196,4.80762363 251.745254,13.4220843 L251.387069,13.4114659 L252.008807,14.1301315 L252.24742,16.0977729 L251.387069,17.3433851 L248.654223,25.7851832 L246.545356,31.1090265 L246.689868,34.0341412 L250.283625,37.1509748 L252.965499,40.1730701 L254.643631,39.9314595 L256.321202,44.6330572 L255.602563,46.1185984 L254.546169,45.7833706 L253.01423,46.7912963 L252.24742,49.8599199 L252.486593,54.560957 L254.405018,56.4293754 L254.069503,59.4038213 L252.343761,60.8422737 L252.775617,63.6709683 L254.165845,67.028852 L253.445525,67.2200103 L254.212335,68.753201 L254.739972,71.247789 L256.224861,72.5427325 L254.978025,74.6051121 L256.178371,76.0446856 L257.470577,79.8342171 L257.039282,81.7519667 L261.54548,86.1155338 L264.850213,86.5959522 L267.587539,88.9167599 L267.587539,90.1657357 L267.923054,90.3737115 L268.836056,90.9359748 L268.356029,93.9188294 L267.683881,95.4559441 L268.356029,96.0339037 L265.760974,99.7847551 L265.473631,101.130151 L265.954217,102.094912 L266.1469,102.861227 L265.185167,103.823745 L265.760974,108.345396 L267.202174,111.03787 L266.435924,111.80923 L266.435924,115.07686 L267.151202,115.84822 L267.245303,119.015506 L265.905486,120.35866 L266.383272,123.714301 L265.473631,129.9973 L264.945994,130.043267 L265.664073,131.099963 L265.712804,136.806684 L263.796619,137.094262 L263.700278,137.81517 L264.372427,138.726676 L266.910909,138.820854 L267.583058,139.348921 L268.157185,144.288766 L266.864979,146.158306 L265.520121,146.831004 L266.336782,147.972348 L265.954217,149.221884 L264.319775,149.221884 L262.49377,151.050501 L262.974917,151.725442 L263.551285,151.242781 L265.185167,151.436182 L264.030751,153.071398 L263.743967,155.668012 L262.109525,155.95559 L259.321787,159.51248 L259.321787,161.053519 L256.823074,164.516792 L254.710285,164.80381 L254.900168,167.208705 L246.443974,171.825094 L245.193216,171.923196 L244.521628,173.74901 L236.435676,178.050913 L233.321386,177.666915 L233.176313,178.337931 L229.486776,180.065083 L224.36052,183.422406 L223.114804,182.607321 L223.066073,184.189282 L219.952343,187.976571 L218.417603,188.649269 L217.506841,186.63566 L216.980324,189.944212 L215.495995,190.32765 L215.014289,192.2454 L209.888593,195.265253 L209.793932,196.56356 L208.449074,197.713873 L207.253209,198.09675 L207.39604,199.872112 L204.424582,199.96685 L197.622434,204.527182 L198.00892,207.412495 L195.79923,209.049393 L192.721908,209.049393 L191.473952,210.68461 L189.068779,209.143571 L187.724481,209.336411 L187.724481,210.39535 L188.974678,211.839408 L188.878337,213.858062 L187.916604,215.107038 L188.301969,217.032075 L186.957671,219.05129 L190.60856,223.955818 L190.704341,225.688015 L189.068779,227.033972 L190.319536,227.609689 L191.663834,229.823986 L191.760175,232.804598 L193.261308,235.599658 L192.63677,243.559356 L193.357649,246.342644 L194.265611,246.198014 L194.265611,243.991004 L195.70513,240.922941 L195.895012,243.607005 L196.516749,243.513388 L196.374478,246.96545 L195.317524,248.292346 L195.123721,251.753377 L195.700088,252.236038 L194.162548,256.275028 L194.162548,258.390663 L193.008692,259.832479 L192.81825,262.430214 L192.1433,262.430214 L192.625567,264.641708 L194.548473,263.48635 L194.98481,264.950028 L193.40358,267.347075 L192.63677,270.607417 L187.99054,275.548384 L179.748313,279.288584 L168.583919,281.493912 L164.318014,285.572703 L161.059772,286.387228 L160.100279,287.922101 L158.471998,289.216484 L157.562357,292.333317 L156.26679,292.285668 L155.070925,293.100193 L155.596321,293.772891 L156.842037,296.120046 L156.698085,298.375266 L157.850261,296.889724 L159.671224,297.464321 L160.245351,295.307203 L161.059772,295.162573 L161.153873,296.361657 L160.621755,299.942091 L159.373798,302.057165 L159.299862,304.024807 L159.276897,304.65434 L157.739356,306.674676 L158.508407,306.962815 L156.970866,311.580325 L156.5855,315.523456 L154.68724,319.333729 L153.440964,324.225364 L151.61888,326.430132 L151.045873,328.685351 L147.546217,332.810111 L146.445013,332.810111 L145.676523,333.912214 L143.09043,335.110737 L141.891764,336.596839 L138.823964,338.565041 L137.26906,341.587697 L134.772026,344.474132 L134.772026,345.72591 L133.328026,348.417262 L130.926774,348.513682 L129.002748,352.263973 L126.057526,357.197204 Z" id="Combined-Shape" fill="#ECEEEE" fill-rule="nonzero"></path>
                <polygon id="malawi" fill="#efaa3f" fill-rule="nonzero" points="170.679624 75.5239053 171.264953 75.0597438 172.478182 75.2206307 173.23603 76.6445079 174.773571 76.8760281 175.461403 77.7034465 176.241656 77.1978019 177.662691 77.404096 178.511839 78.0700669 179.429883 78.2769215 179.979925 79.1290055 181.377434 79.9906194 182.75422 81.3248036 187.020125 86.0140685 187.659787 90.8417971 187.472145 112.224621 186.825202 114.582988 188.931829 126.312036 192.960801 128.419823 194.791847 130.160989 195.70821 131.444161 196.988094 131.719967 201.292648 136.025794 202.11659 138.042206 205.044919 141.983655 206.143323 145.097125 206.967265 146.838291 207.059686 148.213959 205.411801 148.762207 204.863439 150.0465 203.488894 150.230371 203.032393 151.238296 203.672615 152.154847 203.396474 153.343841 204.679718 154.812004 204.588418 159.485012 203.764476 161.499182 202.02473 162.966784 199.459362 163.699464 198.178358 167.089301 197.812036 169.472894 196.531033 171.670934 197.446836 174.695272 196.896234 177.168558 194.424966 177.71961 193.784744 175.887068 194.608687 174.329773 192.960801 172.038676 191.494396 170.845758 189.847071 169.929768 187.741005 167.913356 185.544758 165.25676 185.269177 163.24259 184.170213 160.401563 183.894632 158.293216 185.544758 156.001558 186.18498 153.070837 188.839408 150.230371 189.115549 147.297408 189.115549 143.816196 187.923605 141.799784 184.537095 140.975169 181.882106 141.066543 180.783143 142.256658 179.224877 142.256658 178.217774 142.80771 176.112828 141.524539 175.930227 139.967243 174.830704 138.682951 174.374202 137.491154 173.55026 136.11829 170.170471 136.930573 169.908893 135.718595 168.809929 133.281747 167.065143 131.120705 166.652331 129.924424 167.983186 129.234909 169.908893 126.982492 169.908893 125.189191 170.321704 123.857249 169.954263 122.798311 169.862963 121.00445 170.413005 119.994282 173.212505 117.925175 175.000981 117.097757 175.688814 115.80954 176.881878 115.488327 176.698157 114.521324 175.321933 113.649059 175.138212 112.452217 174.58705 110.796259 175.230072 110.19924 175.734744 108.867298 174.58705 106.889566 175.597514 105.234729 175.138212 103.716114 174.908561 101.78491 174.082938 99.5779005 174.495749 97.4622656 177.34118 94.520894 177.34118 93.7859716 177.983642 92.9109037 177.846412 90.2447777 177.112089 88.3595418 174.954491 86.7949586 174.67947 85.5549522 176.101625 82.3349716 176.194046 81.4161784 174.63354 80.9116549 172.845624 79.8527163 172.249092 78.0588553 171.377538 77.3699005"></polygon>
                <polygon id="Stroke-40" stroke="#ECEEEE" stroke-width="1.68" points="170.679624 75.5239053 171.264953 75.0597438 172.478182 75.2206307 173.23603 76.6445079 174.773571 76.8760281 175.461403 77.7034465 176.241656 77.1978019 177.662691 77.404096 178.511839 78.0700669 179.429883 78.2769215 179.979925 79.1290055 181.377434 79.9906194 182.75422 81.3248036 187.020125 86.0140685 187.659787 90.8417971 187.472145 112.224621 186.825202 114.582988 188.931829 126.312036 192.960801 128.419823 194.791847 130.160989 195.70821 131.444161 196.988094 131.719967 201.292648 136.025794 202.11659 138.042206 205.044919 141.983655 206.143323 145.097125 206.967265 146.838291 207.059686 148.213959 205.411801 148.762207 204.863439 150.0465 203.488894 150.230371 203.032393 151.238296 203.672615 152.154847 203.396474 153.343841 204.679718 154.812004 204.588418 159.485012 203.764476 161.499182 202.02473 162.966784 199.459362 163.699464 198.178358 167.089301 197.812036 169.472894 196.531033 171.670934 197.446836 174.695272 196.896234 177.168558 194.424966 177.71961 193.784744 175.887068 194.608687 174.329773 192.960801 172.038676 191.494396 170.845758 189.847071 169.929768 187.741005 167.913356 185.544758 165.25676 185.269177 163.24259 184.170213 160.401563 183.894632 158.293216 185.544758 156.001558 186.18498 153.070837 188.839408 150.230371 189.115549 147.297408 189.115549 143.816196 187.923605 141.799784 184.537095 140.975169 181.882106 141.066543 180.783143 142.256658 179.224877 142.256658 178.217774 142.80771 176.112828 141.524539 175.930227 139.967243 174.830704 138.682951 174.374202 137.491154 173.55026 136.11829 170.170471 136.930573 169.908893 135.718595 168.809929 133.281747 167.065143 131.120705 166.652331 129.924424 167.983186 129.234909 169.908893 126.982492 169.908893 125.189191 170.321704 123.857249 169.954263 122.798311 169.862963 121.00445 170.413005 119.994282 173.212505 117.925175 175.000981 117.097757 175.688814 115.80954 176.881878 115.488327 176.698157 114.521324 175.321933 113.649059 175.138212 112.452217 174.58705 110.796259 175.230072 110.19924 175.734744 108.867298 174.58705 106.889566 175.597514 105.234729 175.138212 103.716114 174.908561 101.78491 174.082938 99.5779005 174.495749 97.4622656 177.34118 94.520894 177.34118 93.7859716 177.983642 92.9109037 177.846412 90.2447777 177.112089 88.3595418 174.954491 86.7949586 174.67947 85.5549522 176.101625 82.3349716 176.194046 81.4161784 174.63354 80.9116549 172.845624 79.8527163 172.249092 78.0588553 171.377538 77.3699005"></polygon>
                <polygon id="zimbabwe" fill="#efaa3f" fill-rule="nonzero" points="67.7409638 184.299716 69.0421322 184.423605 72.0914479 184.767802 74.3862765 185.941099 75.6230306 186.951828 76.8849902 187.043763 79.1338886 185.436015 81.9541136 185.114802 83.2160732 185.711821 83.8131656 185.64287 84.5922982 185.964644 84.8566768 186.136182 86.7706209 187.597057 89.1573099 188.136897 92.5970321 187.043763 96.3341803 181.619576 102.344312 174.158235 109.820849 169.100668 114.132124 167.593825 115.210363 166.698576 115.417049 165.77754 115.141468 164.629469 115.784491 163.352464 115.417049 162.202151 116.470083 160.316354 120.004466 158.479329 122.020913 157.880067 123.719209 157.053209 126.333308 156.086206 129.81784 156.180384 130.415493 156.915306 131.746348 156.731996 134.359327 157.099177 135.415161 156.915306 135.90863 156.869899 136.193173 161.410049 140.679207 161.591678 142.510253 161.958298 143.150475 163.24259 144.61688 162.966784 145.440823 161.683052 148.919193 162.599603 152.489985 164.52408 154.687912 167.548417 156.976019 167.824224 160.913692 168.281098 163.204039 170.113639 164.575783 171.762309 167.413932 171.94618 167.597653 174.146463 166.406829 176.070939 166.77371 177.90348 166.406829 179.736022 166.68241 181.293317 166.59111 182.850613 165.582886 184.683154 165.307865 188.532107 163.935561 190.73239 164.942664 191.924186 167.049851 191.556445 166.134048 193.481482 164.210582 194.854346 164.210582 197.054068 163.935561 199.61985 162.379536 200.170902 162.379536 201.728198 164.483923 203.560739 165.126385 205.668526 163.66054 206.585077 163.66054 209.058363 165.126385 210.250159 165.766607 212.0827 164.119282 214.372676 161.645774 216.297153 160.821271 217.764755 159.082646 217.946384 158.717445 219.689232 159.449527 221.795337 158.533724 223.354314 158.442424 227.201585 157.802202 228.668627 157.617921 232.974455 143.566087 246.949193 141.517153 245.242783 137.251248 244.368275 133.765035 244.875041 131.929508 245.609963 131.057395 244.783666 128.351996 243.49545 126.378678 243.633353 125.506565 241.930867 122.572075 241.425222 118.306169 242.032332 117.239133 240.764296 116.32333 239.664435 116.32333 238.288768 115.135307 237.283085 113.486861 237.190589 111.105774 235.632172 109.366028 235.539676 106.071378 234.442057 104.604413 234.990867 101.766264 234.442057 100.48526 232.33371 98.1041725 230.501169 97.2796698 228.393382 97.0959491 226.37697 96.5481477 223.444007 97.1883696 221.795337 95.1736031 220.329416 92.9868785 219.448182 92.4822067 218.205372 92.6194371 217.379075 92.5735069 216.69012 90.8757707 215.676589 89.6367761 214.528518 87.4360484 212.87256 84.9597396 211.355065 81.3340562 205.790172 80.326953 204.045081 79.7304208 204.091049 78.3077055 202.940736 77.7106132 201.100907 76.5175488 199.86034 75.9697474 197.699858 74.7301927 195.538256 74.0423603 195.0797 73.720849 193.790923 72.7115054 192.355834 71.0815441 191.296896 70.1887063 190.332135 68.3767047 188.906015 68.2848444 187.574073 68.0087032 186.630615 68.3537396 185.551495 67.8261027 184.308686 67.7432043 184.301959"></polygon>
                <polygon id="Stroke-44" stroke="#ECEEEE" stroke-width="1.68" points="67.7409638 184.299716 69.0421322 184.423605 72.0914479 184.767802 74.3862765 185.941099 75.6230306 186.951828 76.8849902 187.043763 79.1338886 185.436015 81.9541136 185.114802 83.2160732 185.711821 83.8131656 185.64287 84.5922982 185.964644 84.8566768 186.136182 86.7706209 187.597057 89.1573099 188.136897 92.5970321 187.043763 96.3341803 181.619576 102.344312 174.158235 109.820849 169.100668 114.132124 167.593825 115.210363 166.698576 115.417049 165.77754 115.141468 164.629469 115.784491 163.352464 115.417049 162.202151 116.470083 160.316354 120.004466 158.479329 122.020913 157.880067 123.719209 157.053209 126.333308 156.086206 129.81784 156.180384 130.415493 156.915306 131.746348 156.731996 134.359327 157.099177 135.415161 156.915306 135.90863 156.869899 136.193173 161.410049 140.679207 161.591678 142.510253 161.958298 143.150475 163.24259 144.61688 162.966784 145.440823 161.683052 148.919193 162.599603 152.489985 164.52408 154.687912 167.548417 156.976019 167.824224 160.913692 168.281098 163.204039 170.113639 164.575783 171.762309 167.413932 171.94618 167.597653 174.146463 166.406829 176.070939 166.77371 177.90348 166.406829 179.736022 166.68241 181.293317 166.59111 182.850613 165.582886 184.683154 165.307865 188.532107 163.935561 190.73239 164.942664 191.924186 167.049851 191.556445 166.134048 193.481482 164.210582 194.854346 164.210582 197.054068 163.935561 199.61985 162.379536 200.170902 162.379536 201.728198 164.483923 203.560739 165.126385 205.668526 163.66054 206.585077 163.66054 209.058363 165.126385 210.250159 165.766607 212.0827 164.119282 214.372676 161.645774 216.297153 160.821271 217.764755 159.082646 217.946384 158.717445 219.689232 159.449527 221.795337 158.533724 223.354314 158.442424 227.201585 157.802202 228.668627 157.617921 232.974455 143.566087 246.949193 141.517153 245.242783 137.251248 244.368275 133.765035 244.875041 131.929508 245.609963 131.057395 244.783666 128.351996 243.49545 126.378678 243.633353 125.506565 241.930867 122.572075 241.425222 118.306169 242.032332 117.239133 240.764296 116.32333 239.664435 116.32333 238.288768 115.135307 237.283085 113.486861 237.190589 111.105774 235.632172 109.366028 235.539676 106.071378 234.442057 104.604413 234.990867 101.766264 234.442057 100.48526 232.33371 98.1041725 230.501169 97.2796698 228.393382 97.0959491 226.37697 96.5481477 223.444007 97.1883696 221.795337 95.1736031 220.329416 92.9868785 219.448182 92.4822067 218.205372 92.6194371 217.379075 92.5735069 216.69012 90.8757707 215.676589 89.6367761 214.528518 87.4360484 212.87256 84.9597396 211.355065 81.3340562 205.790172 80.326953 204.045081 79.7304208 204.091049 78.3077055 202.940736 77.7106132 201.100907 76.5175488 199.86034 75.9697474 197.699858 74.7301927 195.538256 74.0423603 195.0797 73.720849 193.790923 72.7115054 192.355834 71.0815441 191.296896 70.1887063 190.332135 68.3767047 188.906015 68.2848444 187.574073 68.0087032 186.630615 68.3537396 185.551495 67.8261027 184.308686 67.7432043 184.301959"></polygon>
                <polygon id="mozambique" fill="#efaa3f" fill-rule="nonzero" points="143.565975 246.949361 157.618369 232.974623 157.80209 228.668796 158.442312 227.201193 158.533612 223.354482 159.449415 221.794944 158.717333 219.6894 159.082534 217.945991 160.821159 217.764363 161.645662 216.297321 164.11917 214.372284 165.766495 212.082868 165.126273 210.250327 163.660428 209.058531 163.660428 206.585245 165.126273 205.668694 164.483811 203.560907 162.379984 201.728366 162.379984 200.17107 163.935449 199.620019 164.21103 197.054237 164.21103 194.854515 166.134497 193.48165 167.049739 191.556613 164.942552 191.924355 163.935449 190.732558 165.307753 188.532275 165.582774 184.682762 166.590998 182.850221 166.682298 181.292925 166.407277 179.73619 166.773598 177.903649 166.407277 176.070547 167.598101 174.146631 167.41382 171.946348 164.576231 171.761917 163.203927 170.113807 160.91358 168.281266 156.976467 167.824392 154.6878 167.548586 152.489873 164.524248 148.919081 162.599211 145.440711 161.68266 144.616768 162.966952 143.150923 163.242758 142.510141 161.958466 140.679095 161.591285 136.193061 161.410217 135.82618 155.544292 134.818517 151.603964 135.91748 149.678366 140.862816 147.113705 143.517244 147.113705 156.427545 141.707456 158.717333 141.247779 166.28573 138.201019 170.046403 136.960452 173.54998 136.117897 174.373922 137.491322 174.830984 138.683119 175.929947 139.967411 176.113108 141.524707 178.218054 142.807878 179.224597 142.256826 180.782863 142.256826 181.882386 141.066712 184.536815 140.975337 187.923885 141.799952 189.115269 143.816364 189.115269 147.297576 188.839128 150.230539 186.1847 153.071006 185.544478 156.001166 183.894912 158.293384 184.169933 160.40117 185.269457 163.242758 185.544478 165.256368 187.740725 167.912964 189.847351 169.929376 191.494676 170.845926 192.960521 172.038844 194.608407 174.329941 193.784464 175.886676 194.424686 177.719217 196.896514 177.168726 197.447116 174.69488 196.531313 171.670542 197.811756 169.472502 198.178638 167.089469 199.459081 163.699632 202.02445 162.966952 203.764196 161.498789 204.588138 159.48518 204.679998 154.812172 203.396754 153.344009 203.672895 152.154455 203.032673 151.238464 203.489175 150.230539 204.863719 150.046668 205.411521 148.762376 207.059966 148.214127 206.967545 146.83846 206.143043 145.097293 205.044639 141.983823 202.11687 138.042374 201.292928 136.025401 196.987814 131.719574 195.70793 131.444329 194.791567 130.161158 192.960521 128.419991 188.931548 126.311644 186.825482 114.582595 189.938652 103.220167 202.11687 103.039099 204.220697 102.579422 204.771299 101.663432 206.602344 101.297933 206.694765 102.395552 208.34209 102.855229 209.898115 103.95509 211.54544 104.136718 212.828124 105.511264 212.460683 106.611686 216.215195 105.511264 218.962043 103.587348 220.336588 103.220167 221.343691 102.395552 222.807856 103.039099 222.991016 103.862594 224.638901 103.95509 226.196607 104.963015 228.851595 103.95509 232.422386 103.678723 233.338189 101.754807 232.697407 100.290007 233.61321 99.4625889 235.900757 100.197511 237.640503 99.830891 239.379128 101.114062 241.669476 100.838256 242.86086 99.830891 247.620234 98.3649701 249.45128 99.0970897 251.466047 98.4563449 252.381849 97.3570444 255.311299 96.9893029 257.051044 95.1567617 259.706033 94.7912625 261.628939 93.2328457 263.095344 91.2158732 265.474751 91.8594208 266.573715 90.5751284 267.021814 90.3733191 267.934816 90.9355824 267.45479 93.9189976 266.782641 95.4555517 267.45479 96.0340719 264.859175 99.7843627 264.572951 101.129758 265.052978 102.09508 265.24566 102.861395 264.283927 103.823914 264.859175 108.345565 266.300934 111.037477 265.534684 111.808838 265.534684 115.077028 266.249963 115.848389 266.344064 119.015674 265.004247 120.358828 265.482033 123.714469 264.572951 129.997468 264.045314 130.043435 264.762833 131.099571 264.811564 136.806852 262.895379 137.094431 262.799038 137.815338 263.471187 138.726844 266.00967 138.821022 266.681818 139.34909 267.255386 144.288935 265.963739 146.158474 264.618881 146.831172 265.435542 147.972516 265.052978 149.221492 263.418535 149.221492 261.592531 151.050109 262.073677 151.725049 262.650605 151.242949 264.283927 151.435789 263.129511 153.071006 262.842728 155.66818 261.208846 155.955198 258.420548 159.512649 258.420548 161.053127 255.921834 164.51696 253.809046 164.803418 253.998928 167.208313 245.542734 171.824702 244.291977 171.923364 243.620388 173.748618 235.534436 178.051082 232.420146 177.667083 232.275074 178.337539 228.585536 180.064691 223.45928 183.422014 222.213564 182.607489 222.164833 184.18945 219.051103 187.976179 217.516363 188.649437 216.605601 186.635267 216.079085 189.94438 214.594756 190.328379 214.113049 192.246128 208.987353 195.265421 208.892692 196.563167 207.547834 197.713481 206.352529 198.096918 206.494801 199.87228 203.522782 199.966458 196.721755 204.52735 197.10768 207.412103 194.897991 209.049561 191.820669 209.049561 190.572712 210.684778 188.167539 209.143739 186.822681 209.336019 186.822681 210.394957 188.073438 211.839576 187.977097 213.85767 187.015364 215.107206 187.400729 217.032243 186.056431 219.050897 189.70732 223.955986 189.803662 225.688183 188.167539 227.033579 189.418296 227.609296 190.762594 229.824154 190.858936 232.804767 192.360068 235.599266 191.73553 243.559524 192.45641 246.342251 193.364371 246.198182 193.364371 243.991172 194.80389 240.923109 194.993772 243.607174 195.61551 243.513557 195.473238 246.965618 194.415724 248.292515 194.222481 251.753545 194.798849 252.235645 193.261868 256.275196 193.261868 258.390271 192.107452 259.832647 191.91701 262.429821 191.242061 262.429821 191.724327 264.641876 193.647234 263.486518 194.08301 264.949636 192.50234 267.346683 191.73553 270.608146 187.0893 275.548552 178.846514 279.288752 167.68268 281.49408 163.416774 285.572311 160.158532 286.387397 159.19904 287.921708 157.570199 289.216652 156.661117 292.332925 155.36555 292.285836 154.169685 293.100361 154.695081 293.773059 155.940798 296.120214 155.796846 298.375434 156.948461 296.889332 158.769984 297.463928 159.344112 295.307371 160.158532 295.16218 160.252633 296.361825 159.720515 299.941699 158.471998 302.056773 158.398622 304.024975 155.874703 304.096169 151.471007 303.040033 150.277382 303.303506 150.002362 302.302308 150.598894 300.187794 150.829105 298.485868 151.241916 297.567075 150.034849 295.984553 148.729199 294.547783 147.398344 293.800527 147.179336 293.422135 147.271756 289.146019 147.455477 285.480936 148.37128 281.541729 148.487786 271.634571 147.707533 268.738607 146.884151 266.301758 146.79173 263.863229 147.021941 263.128306 146.929521 257.196232 145.415505 254.070429 144.680622 250.758513 143.946299 247.26609"></polygon>
                <polygon id="Stroke-48" stroke="#ECEEEE" stroke-width="1.68" points="143.565975 246.949361 157.618369 232.974623 157.80209 228.668796 158.442312 227.201193 158.533612 223.354482 159.449415 221.794944 158.717333 219.6894 159.082534 217.945991 160.821159 217.764363 161.645662 216.297321 164.11917 214.372284 165.766495 212.082868 165.126273 210.250327 163.660428 209.058531 163.660428 206.585245 165.126273 205.668694 164.483811 203.560907 162.379984 201.728366 162.379984 200.17107 163.935449 199.620019 164.21103 197.054237 164.21103 194.854515 166.134497 193.48165 167.049739 191.556613 164.942552 191.924355 163.935449 190.732558 165.307753 188.532275 165.582774 184.682762 166.590998 182.850221 166.682298 181.292925 166.407277 179.73619 166.773598 177.903649 166.407277 176.070547 167.598101 174.146631 167.41382 171.946348 164.576231 171.761917 163.203927 170.113807 160.91358 168.281266 156.976467 167.824392 154.6878 167.548586 152.489873 164.524248 148.919081 162.599211 145.440711 161.68266 144.616768 162.966952 143.150923 163.242758 142.510141 161.958466 140.679095 161.591285 136.193061 161.410217 135.82618 155.544292 134.818517 151.603964 135.91748 149.678366 140.862816 147.113705 143.517244 147.113705 156.427545 141.707456 158.717333 141.247779 166.28573 138.201019 170.046403 136.960452 173.54998 136.117897 174.373922 137.491322 174.830984 138.683119 175.929947 139.967411 176.113108 141.524707 178.218054 142.807878 179.224597 142.256826 180.782863 142.256826 181.882386 141.066712 184.536815 140.975337 187.923885 141.799952 189.115269 143.816364 189.115269 147.297576 188.839128 150.230539 186.1847 153.071006 185.544478 156.001166 183.894912 158.293384 184.169933 160.40117 185.269457 163.242758 185.544478 165.256368 187.740725 167.912964 189.847351 169.929376 191.494676 170.845926 192.960521 172.038844 194.608407 174.329941 193.784464 175.886676 194.424686 177.719217 196.896514 177.168726 197.447116 174.69488 196.531313 171.670542 197.811756 169.472502 198.178638 167.089469 199.459081 163.699632 202.02445 162.966952 203.764196 161.498789 204.588138 159.48518 204.679998 154.812172 203.396754 153.344009 203.672895 152.154455 203.032673 151.238464 203.489175 150.230539 204.863719 150.046668 205.411521 148.762376 207.059966 148.214127 206.967545 146.83846 206.143043 145.097293 205.044639 141.983823 202.11687 138.042374 201.292928 136.025401 196.987814 131.719574 195.70793 131.444329 194.791567 130.161158 192.960521 128.419991 188.931548 126.311644 186.825482 114.582595 189.938652 103.220167 202.11687 103.039099 204.220697 102.579422 204.771299 101.663432 206.602344 101.297933 206.694765 102.395552 208.34209 102.855229 209.898115 103.95509 211.54544 104.136718 212.828124 105.511264 212.460683 106.611686 216.215195 105.511264 218.962043 103.587348 220.336588 103.220167 221.343691 102.395552 222.807856 103.039099 222.991016 103.862594 224.638901 103.95509 226.196607 104.963015 228.851595 103.95509 232.422386 103.678723 233.338189 101.754807 232.697407 100.290007 233.61321 99.4625889 235.900757 100.197511 237.640503 99.830891 239.379128 101.114062 241.669476 100.838256 242.86086 99.830891 247.620234 98.3649701 249.45128 99.0970897 251.466047 98.4563449 252.381849 97.3570444 255.311299 96.9893029 257.051044 95.1567617 259.706033 94.7912625 261.628939 93.2328457 263.095344 91.2158732 265.474751 91.8594208 266.573715 90.5751284 267.021814 90.3733191 267.934816 90.9355824 267.45479 93.9189976 266.782641 95.4555517 267.45479 96.0340719 264.859175 99.7843627 264.572951 101.129758 265.052978 102.09508 265.24566 102.861395 264.283927 103.823914 264.859175 108.345565 266.300934 111.037477 265.534684 111.808838 265.534684 115.077028 266.249963 115.848389 266.344064 119.015674 265.004247 120.358828 265.482033 123.714469 264.572951 129.997468 264.045314 130.043435 264.762833 131.099571 264.811564 136.806852 262.895379 137.094431 262.799038 137.815338 263.471187 138.726844 266.00967 138.821022 266.681818 139.34909 267.255386 144.288935 265.963739 146.158474 264.618881 146.831172 265.435542 147.972516 265.052978 149.221492 263.418535 149.221492 261.592531 151.050109 262.073677 151.725049 262.650605 151.242949 264.283927 151.435789 263.129511 153.071006 262.842728 155.66818 261.208846 155.955198 258.420548 159.512649 258.420548 161.053127 255.921834 164.51696 253.809046 164.803418 253.998928 167.208313 245.542734 171.824702 244.291977 171.923364 243.620388 173.748618 235.534436 178.051082 232.420146 177.667083 232.275074 178.337539 228.585536 180.064691 223.45928 183.422014 222.213564 182.607489 222.164833 184.18945 219.051103 187.976179 217.516363 188.649437 216.605601 186.635267 216.079085 189.94438 214.594756 190.328379 214.113049 192.246128 208.987353 195.265421 208.892692 196.563167 207.547834 197.713481 206.352529 198.096918 206.494801 199.87228 203.522782 199.966458 196.721755 204.52735 197.10768 207.412103 194.897991 209.049561 191.820669 209.049561 190.572712 210.684778 188.167539 209.143739 186.822681 209.336019 186.822681 210.394957 188.073438 211.839576 187.977097 213.85767 187.015364 215.107206 187.400729 217.032243 186.056431 219.050897 189.70732 223.955986 189.803662 225.688183 188.167539 227.033579 189.418296 227.609296 190.762594 229.824154 190.858936 232.804767 192.360068 235.599266 191.73553 243.559524 192.45641 246.342251 193.364371 246.198182 193.364371 243.991172 194.80389 240.923109 194.993772 243.607174 195.61551 243.513557 195.473238 246.965618 194.415724 248.292515 194.222481 251.753545 194.798849 252.235645 193.261868 256.275196 193.261868 258.390271 192.107452 259.832647 191.91701 262.429821 191.242061 262.429821 191.724327 264.641876 193.647234 263.486518 194.08301 264.949636 192.50234 267.346683 191.73553 270.608146 187.0893 275.548552 178.846514 279.288752 167.68268 281.49408 163.416774 285.572311 160.158532 286.387397 159.19904 287.921708 157.570199 289.216652 156.661117 292.332925 155.36555 292.285836 154.169685 293.100361 154.695081 293.773059 155.940798 296.120214 155.796846 298.375434 156.948461 296.889332 158.769984 297.463928 159.344112 295.307371 160.158532 295.16218 160.252633 296.361825 159.720515 299.941699 158.471998 302.056773 158.398622 304.024975 155.874703 304.096169 151.471007 303.040033 150.277382 303.303506 150.002362 302.302308 150.598894 300.187794 150.829105 298.485868 151.241916 297.567075 150.034849 295.984553 148.729199 294.547783 147.398344 293.800527 147.179336 293.422135 147.271756 289.146019 147.455477 285.480936 148.37128 281.541729 148.487786 271.634571 147.707533 268.738607 146.884151 266.301758 146.79173 263.863229 147.021941 263.128306 146.929521 257.196232 145.415505 254.070429 144.680622 250.758513 143.946299 247.26609"></polygon>
            </g>
        </g>
    </g>
</svg>