<?xml version="1.0" encoding="UTF-8"?>
<svg width="30px" height="53px" viewBox="0 0 30 53" version="1.1" xmlns="http://www.w3.org/2000/svg" xmlns:xlink="http://www.w3.org/1999/xlink">
    <!-- Generator: Sketch 45.1 (43504) - http://www.bohemiancoding.com/sketch -->
    <title>Fill 1</title>
    <desc>Created with Sketch.</desc>
    <defs></defs>
    <g id="Page-1" stroke="none" stroke-width="1" fill="none" fill-rule="evenodd">
        <g id="3A-Countries_About-" transform="translate(-653.000000, -1867.000000)" fill="#FFFFFF">
            <g id="Contact-Section" transform="translate(188.000000, 1654.000000)">
                <g id="Contact-Icons" transform="translate(453.000000, 101.000000)">
                    <g id="Cell" transform="translate(12.000000, 112.000000)">
                        <path d="M15.0599358,45.8190199 C13.5389074,45.8029265 12.3354564,46.8539911 12.3917289,48.231918 C12.4496728,49.6608998 13.2870741,50.5071899 14.8927898,50.6004206 C16.4377757,50.6903215 17.6250693,49.6769931 17.6696416,48.2957366 C17.7142138,46.9194746 16.5687067,45.8317836 15.0599358,45.8190199 M3.45164793,24.4014971 C3.45164793,29.6951114 3.4817342,34.9903905 3.42601888,40.2840048 C3.41487581,41.3445035 3.6962382,41.6852393 4.92643256,41.6752503 C11.6055857,41.618646 18.2864102,41.6214207 24.9655633,41.6724756 C26.2030006,41.6824646 26.6136226,41.4266353 26.6074939,40.2307301 C26.55345,29.7012158 26.5579073,19.1717014 26.6030367,8.64218696 C26.6074939,7.56614983 26.3122027,7.2542711 25.1009515,7.2642601 C18.4223556,7.31975454 11.741531,7.33418309 5.06237795,7.25704582 C3.59316485,7.23817771 3.40986143,7.72430898 3.42434742,8.87304382 C3.48730573,14.0479 3.45164793,19.225531 3.45164793,24.4014971 M30,3.92626974 L30,49.4705538 C29.0600825,51.1331672 27.7234718,52.4006601 25.7182773,53 L3.9202138,53 C1.44868201,51.8446058 -0.0127309451,50.2025255 8.35795427e-05,47.4855178 C0.0624847429,33.4937055 0.0201410963,19.4996735 0.0346270807,5.50564141 C0.0385271534,1.97896996 2.16685255,0.0583075112 6.03851044,0.0466536796 C11.7426453,0.030560293 17.4501232,0.145433777 23.150358,0.00447790777 C26.535064,-0.0793186915 28.8383355,1.0050426 30,3.92626974" id="Fill-1"></path>
                    </g>
                </g>
            </g>
        </g>
    </g>
</svg>