<?xml version="1.0" encoding="UTF-8" standalone="no"?>
<svg viewBox="0 0 408 463" version="1.1" xmlns="http://www.w3.org/2000/svg" xmlns:xlink="http://www.w3.org/1999/xlink">
    <!-- Generator: Sketch 44.1 (41455) - http://www.bohemiancoding.com/sketch -->
    <title>Country Zoom In</title>
    <desc>Created with Sketch.</desc>
    <defs></defs>
    <g id="Page-1" stroke="none" stroke-width="1" fill="none" fill-rule="evenodd">
        <g id="Country-Zoom-In" transform="translate(4.000000, 1.000000)" stroke-width="3.34457402" stroke="#FFFFFF" fill="#f5cc8c">
            <polygon id="malawi" points="207.039912 1.9275177 208.212663 0.9981407 210.644043 1.3209417 212.163097 4.1703993 215.243031 4.6342516 216.622114 6.2900702 218.185782 5.278181 221.032615 5.6912994 222.734581 7.0248746 224.573731 7.4379929 225.676774 9.1445454 228.476765 10.8683809 231.236046 13.5394338 239.784912 22.9257511 241.066405 32.5897108 240.689988 75.392901 239.393995 80.113936 243.614893 103.591995 251.688078 107.811823 255.358012 111.296848 257.193816 113.865875 259.758475 114.417257 268.385413 123.036435 270.036632 127.073398 275.903731 134.962789 278.105356 141.195246 279.756576 144.68027 279.941717 147.434393 276.638721 148.532139 275.540697 151.102839 272.785876 151.470799 271.87132 153.488445 273.154487 155.322668 272.601292 157.703256 275.172086 160.641916 274.989175 169.995897 273.337956 174.027843 269.851491 176.966503 264.711018 178.43221 262.144685 185.217721 261.410252 189.988932 258.84392 194.388838 260.678608 200.44289 259.575564 205.394178 254.623022 206.496942 253.339855 202.828495 254.991075 199.71143 251.688078 195.125315 248.750347 192.738037 245.449581 190.903813 241.228683 186.866849 236.827663 181.549274 236.276141 177.517885 234.0734 171.830121 233.521878 167.610292 236.827663 163.022503 238.110829 157.156891 243.429751 151.470799 243.982946 145.600169 243.982946 138.631236 241.595063 134.594829 234.807833 132.944028 229.48891 133.126893 227.286169 135.509711 224.163853 135.509711 222.145697 136.612475 217.927587 134.043447 217.561207 130.926383 215.358466 128.355682 214.443353 125.970634 212.792133 123.221529 206.019402 124.8478 205.495763 122.422053 203.292464 117.5438 199.797077 113.218601 198.969515 110.82296 201.636784 109.443111 205.495763 104.93449 205.495763 101.344095 206.322767 98.67806 205.586661 96.558389 205.403192 92.967995 206.506235 90.945331 212.115697 86.803555 215.699194 85.147736 217.077719 82.569231 219.468948 81.925301 219.100337 79.990725 216.343286 78.244032 215.974676 75.848391 214.870517 72.533409 216.158145 71.338655 217.17029 68.672062 214.870517 64.713707 216.89425 61.400398 215.974676 58.361385 215.514052 54.495021 213.859487 50.0772742 214.686491 45.8429501 220.388523 39.9544799 220.388523 38.4831987 221.676708 36.732045 221.400668 31.3949568 219.929572 27.6211399 215.606623 24.4895798 215.055101 22.0064094 217.905281 15.5615395 218.089865 13.7222986 214.96253 12.7120819 211.380706 10.5924111 210.185649 7.0020165 208.437956 5.6232826"></polygon>
            <polygon id="zimbabwe" points="0.7624726 219.668617 3.3695142 219.916711 9.4803081 220.605799 14.0787391 222.954051 16.5575198 224.978387 19.0864896 225.161251 23.5929074 221.943834 29.2447505 221.299905 31.7731626 222.495216 32.9687769 222.35751 34.5313289 223.001439 35.0599868 223.344869 38.8961021 226.269033 43.6785595 227.348939 50.571187 225.161251 58.060507 214.303653 70.103645 199.367277 85.085629 189.244482 93.725393 186.228328 95.88631 184.435918 96.299533 182.592217 95.748569 180.294141 97.036197 177.738494 96.299533 175.435401 98.410261 171.659911 105.492491 167.983659 109.533267 166.78333 112.936641 165.127512 118.174703 163.192936 125.158229 163.380818 126.354958 164.851542 129.022227 164.485255 134.258616 165.220059 136.373805 164.851542 137.363087 164.761225 137.932454 173.849272 146.922425 174.212771 150.591802 174.947018 151.874968 177.517718 154.812699 176.966336 156.464476 174.395636 163.434618 176.229859 170.589902 180.083401 174.994268 186.137453 179.579873 186.688835 187.470147 187.603159 192.059098 191.271606 194.8089 194.572093 200.496433 194.940052 200.864486 199.344976 198.478276 203.196287 199.213267 206.864734 198.478276 210.533181 199.029798 213.650246 198.846329 216.76731 196.826499 220.435757 196.275535 228.14061 193.525733 232.545534 195.54389 234.931139 199.765904 234.194662 197.931216 238.047646 194.077255 240.796751 194.077255 245.200002 193.525733 250.335827 190.407879 251.438591 190.407879 254.555656 194.623758 258.224103 195.911943 262.443931 192.974212 264.278155 192.974212 269.229443 195.911943 271.615048 197.19511 275.283495 193.893786 279.866266 188.936225 283.719807 187.285563 286.656795 183.800771 287.019737 183.069127 290.509779 184.535762 294.72459 182.701074 297.846672 182.517605 305.546507 181.234439 308.484052 180.866386 317.10323 152.706991 345.077087 148.601527 341.661752 140.052662 339.910041 133.067463 340.925275 129.388607 342.395999 127.641471 340.741853 122.220497 338.163347 118.265601 338.439317 116.518465 335.031787 110.637983 334.019898 102.089117 335.234722 99.951064 332.696358 98.116934 330.494175 98.116934 327.74061 95.735185 325.727982 92.432747 325.542887 87.660327 322.422477 84.17442 322.23794 77.571773 320.040217 74.632369 321.139636 68.945393 320.040217 66.37906 315.820388 61.606641 312.151942 59.955422 307.93267 59.586811 303.895706 58.488786 298.025077 59.771953 294.72459 55.734524 291.790947 51.353021 290.026413 50.340875 287.538783 50.616357 285.884637 50.523786 284.505903 47.122085 282.477664 44.6388431 280.179031 40.2294575 276.864607 35.2674348 273.826709 28.0017353 262.687008 25.9841361 259.193621 24.7885217 259.286168 21.9366692 256.983633 20.7410548 253.300691 18.3503837 250.81752 17.2518015 246.492321 14.7685595 242.16545 13.3894764 241.24778 12.7453837 238.667602 10.7227656 235.795287 7.4571323 233.675616 5.668172 231.744385 2.0361588 228.88991 1.85269 226.223874 1.2994953 224.334457 1.990431 222.174088 0.9331153 219.686457 0.7674915 219.673634"></polygon>
            <polygon id="mozambique" points="152.707102 345.076975 180.866497 317.103118 181.23455 308.483941 182.517716 305.546953 182.701185 297.846561 184.535873 294.725036 183.069238 290.510225 183.800883 287.020183 187.285117 286.656683 188.936336 283.719696 193.893898 279.866154 197.195221 275.283383 195.912055 271.614937 192.974323 269.229331 192.974323 264.278043 195.912055 262.44382 194.62387 258.223991 190.407991 254.555545 190.407991 251.43848 193.525845 250.335716 194.077367 245.199891 194.077367 240.796639 197.931327 238.048092 199.766015 234.19455 195.543444 234.931027 193.525845 232.545422 196.275089 228.140498 196.826611 220.435645 198.84644 216.767199 199.029352 213.650134 198.478388 210.533069 199.213378 206.86518 198.478388 203.196734 200.86404 199.344864 200.495987 194.939941 194.809011 194.571981 192.05921 191.271494 187.470259 187.603605 179.579985 186.688723 174.993822 186.137341 170.590013 180.083289 163.43473 176.229748 156.46403 174.396082 154.812811 176.966225 151.875079 177.517607 150.591913 174.947464 146.922537 174.21266 137.932565 173.84916 137.197575 162.107901 135.178302 154.219625 137.381043 150.366084 147.291147 145.231931 152.61007 145.231931 178.480287 134.410013 183.069238 133.490671 198.234692 127.390903 205.771412 124.90829 212.792301 123.221251 214.44352 125.970356 215.358633 128.355961 217.561374 130.926661 217.927754 134.043168 222.145864 136.612196 224.163463 135.509432 227.286336 135.509432 229.489078 133.127172 234.808 132.943749 241.595231 134.595108 243.983113 138.631514 243.983113 145.599891 243.429919 151.47052 238.110439 157.156613 236.82783 163.022225 233.521488 167.610571 234.073009 171.830399 236.276308 177.517607 236.82783 181.549553 241.228851 186.867128 245.449749 190.903535 248.750514 192.737758 251.688246 195.125036 254.990684 199.711152 253.340023 202.828216 254.622631 206.496663 259.575174 205.393899 260.678217 200.442611 258.843529 194.388559 261.409862 189.98921 262.144853 185.218 264.711185 178.432488 269.851658 176.966225 273.337565 174.027565 274.988784 169.996176 275.172253 160.641637 272.601459 157.702977 273.154096 155.322389 271.87093 153.488166 272.786043 151.47052 275.540864 151.102561 276.638888 148.532418 279.941327 147.434114 279.756743 144.680549 278.104966 141.195524 275.903898 134.963068 270.036242 127.07312 268.38558 123.036713 259.758643 114.416979 257.193983 113.865597 255.357622 111.296569 251.688246 107.811545 243.61506 103.591716 239.394163 80.113657 245.63266 57.36873 270.036242 57.005231 274.252679 56.085889 275.355722 54.251665 279.025098 53.520206 279.209682 55.717929 282.511006 56.637271 285.62886 58.839454 288.929626 59.202953 291.500977 61.954846 290.764314 64.157029 298.288208 61.954846 303.792272 58.103535 306.546535 57.36873 308.564692 55.717929 311.499078 57.005231 311.865457 58.654917 315.168454 58.839454 318.289096 60.8571 323.61025 58.839454 330.765533 58.286399 332.600221 54.435088 331.317055 51.502561 333.151743 49.8467419 337.735675 51.318023 341.221582 50.5832188 344.706374 53.152247 349.295325 52.600864 351.683208 50.5832188 361.219682 47.6495765 364.889059 49.1152826 368.926488 47.8329988 370.761733 45.6319308 376.632178 44.8960114 380.118085 41.2275647 385.438681 40.4961055 389.291526 37.3756957 392.23093 33.3392893 396.998331 34.6265908 399.201072 32.056448 400.09834 31.6522499 401.928009 32.777872 400.966053 38.7494119 399.619871 41.825778 400.966053 42.983736 395.765353 50.4906714 395.191526 53.184582 396.152924 55.115813 396.53938 56.650094 394.612121 58.576864 395.765353 67.628116 398.654569 73.017053 397.118227 74.560811 397.118227 81.102688 398.55196 82.647004 398.740448 88.986503 396.055892 91.675397 397.01283 98.392334 395.191526 110.969308 394.133652 111.061298 395.572405 113.176508 395.669994 124.599985 391.829975 125.175897 391.637026 126.618745 392.983766 128.443491 398.070703 128.631373 399.416885 129.688979 400.566771 139.577059 397.978132 143.319655 395.283539 144.666053 396.920259 146.950749 396.152924 149.45176 392.877811 149.45176 389.218473 153.111843 390.183775 154.462702 391.338681 153.498201 394.612121 153.884001 392.298964 157.156613 391.724578 162.355995 388.449465 162.930235 382.862868 170.05137 382.862868 173.135541 377.855117 180.068794 373.621393 180.643034 374.00283 185.456058 357.057338 194.696864 354.551233 194.894782 353.205051 198.548734 337.000684 207.160105 330.760514 206.391293 330.470533 207.734346 323.076573 211.191494 312.80455 217.912334 310.308482 216.280488 310.210892 219.448287 303.970722 227.028257 300.894692 228.37577 299.070042 224.344381 298.015514 230.967098 295.04042 231.735911 294.075117 235.574957 283.803652 241.618974 283.614049 244.216992 280.920013 246.520085 278.523766 247.287226 278.809285 250.840267 272.854078 251.029822 259.224966 260.159125 259.998435 265.933862 255.570089 269.211491 249.404087 269.211491 246.903 272.484102 242.08318 269.399931 239.389144 269.785731 239.389144 271.905402 241.89525 274.796673 241.702301 278.836425 239.775042 281.337435 240.547395 285.190419 237.852802 289.231843 245.16869 299.050235 245.361639 302.517419 242.08318 305.21133 244.589843 306.36427 247.284437 310.796512 247.476828 316.763034 250.484824 322.357694 249.234002 338.291464 250.677773 343.862151 252.497962 343.573358 252.497962 339.156169 255.382159 333.014587 255.763038 338.387357 257.008841 338.198917 256.723321 345.109311 254.604786 347.765869 254.217216 354.694104 255.372121 355.658604 252.291629 363.744797 252.291629 367.979121 249.978473 370.865932 249.597594 376.065315 248.244163 376.065315 249.211138 380.492539 253.063983 378.179968 253.938388 381.10915 250.770344 385.907679 249.234002 392.435618 239.92282 402.324814 223.405609 409.812236 201.034682 414.226638 192.485817 422.390883 185.956781 424.022171 184.034541 427.094077 180.77058 429.685405 178.949276 435.923995 176.351715 435.82866 173.956025 437.459948 175.008879 438.805788 177.504947 443.504522 177.216639 448.019276 179.524777 445.044935 183.174635 446.19453 184.324522 441.877694 185.956781 441.587229 186.144711 443.98733 185.07903 451.154181 182.577386 455.388505 182.430164 459.327904 177.372225 459.470628 168.547877 457.355417 166.156648 457.884498 165.605127 455.879676 166.800183 451.647024 167.261365 448.240052 168.088926 446.400811 165.669815 443.23357 163.053293 440.356236 160.386582 438.86154 159.948265 438.103877 160.133406 429.544354 160.502017 422.207461 162.336705 414.32253 162.570363 394.49006 161.006138 388.694137 159.356592 383.815884 159.17145 378.934285 159.632074 377.463561 159.44749 365.589056 156.413841 359.332069 154.941072 352.702661 153.469418 345.71087"></polygon>
        </g>
    </g>
</svg>