<?xml version="1.0" encoding="UTF-8"?>
<svg width="31px" height="49px" viewBox="0 0 31 49" version="1.1" xmlns="http://www.w3.org/2000/svg" xmlns:xlink="http://www.w3.org/1999/xlink">
    <!-- Generator: Sketch 45.1 (43504) - http://www.bohemiancoding.com/sketch -->
    <title>Fill 7</title>
    <desc>Created with Sketch.</desc>
    <defs></defs>
    <g id="Page-1" stroke="none" stroke-width="1" fill="none" fill-rule="evenodd">
        <g id="3A-Countries_About-" transform="translate(-653.000000, -1768.000000)" fill="#FFFFFF">
            <g id="Contact-Section" transform="translate(188.000000, 1654.000000)">
                <g id="Contact-Icons" transform="translate(453.000000, 101.000000)">
                    <g id="Pin" transform="translate(12.000000, 0.000000)">
                        <path d="M15.4040245,36.5889432 C19.9085826,36.5978187 23.4729577,33.1102896 23.5051292,28.6603202 C23.5395193,24.0749988 20.0494714,20.5774848 15.4350866,20.573047 C10.8794979,20.569164 7.37059082,23.9867982 7.33342724,28.4656132 C7.29626367,33.0270815 10.8295767,36.5828412 15.4040245,36.5889432 M12.4669927,13 L18.3715637,13 C23.1506885,14.239246 26.9153032,16.8170332 29.2438508,21.2697762 C31.571289,25.7197457 31.2956129,30.3555466 30.08641,35.0057703 C27.5354357,44.8121228 22.2754031,53.2255717 16.3763789,61.2995316 C15.4739142,62.5315662 14.9253355,61.9335773 14.2979921,61.0715414 C7.79103843,52.1299984 2.11000357,42.7862828 0,31.7018538 L0,25.7996255 C0.363870227,24.4311295 0.707771966,23.0620788 1.32901382,21.7823382 C3.6264993,17.0594461 7.46765986,14.2974917 12.4669927,13" id="Fill-7"></path>
                    </g>
                </g>
            </g>
        </g>
    </g>
</svg>