<?xml version="1.0" encoding="UTF-8" standalone="no"?>
<svg width="63px" height="11px" viewBox="0 0 63 11" version="1.1" xmlns="http://www.w3.org/2000/svg" xmlns:xlink="http://www.w3.org/1999/xlink">
    <!-- Generator: Sketch 44.1 (41455) - http://www.bohemiancoding.com/sketch -->
    <title>Rectangle</title>
    <desc>Created with Sketch.</desc>
    <defs>
        <path d="M0,0 L11,0 L11,3 L0,3 L0,0 Z M0,6 L11,6 L11,9 L0,9 L0,6 Z M0,12 L11,12 L11,15 L0,15 L0,12 Z M0,18 L11,18 L11,21 L0,21 L0,18 Z M0,24 L11,24 L11,27 L0,27 L0,24 Z M0,30 L11,30 L11,33 L0,33 L0,30 Z M0,36 L11,36 L11,39 L0,39 L0,36 Z M0,42 L11,42 L11,45 L0,45 L0,42 Z M0,48 L11,48 L11,51 L0,51 L0,48 Z M0,54 L11,54 L11,57 L0,57 L0,54 Z M0,60 L11,60 L11,63 L0,63 L0,60 Z" id="path-1"></path>
        <linearGradient x1="50%" y1="0%" x2="50%" y2="76.4439777%" id="linearGradient-3">
            <stop stop-color="#FCEFC1" stop-opacity="0" offset="0%"></stop>
            <stop stop-color="#FBD7A3" stop-opacity="0.182078346" offset="39.8267077%"></stop>
            <stop stop-color="#FABB80" stop-opacity="0.393695837" offset="63.4828578%"></stop>
            <stop stop-color="#F76B1C" offset="100%"></stop>
        </linearGradient>
    </defs>
    <g id="Page-1" stroke="none" stroke-width="1" fill="none" fill-rule="evenodd">
        <g id="Rectangle" transform="translate(31.500000, 5.500000) rotate(-270.000000) translate(-31.500000, -5.500000) translate(26.000000, -26.000000)">
            <mask id="mask-2" fill="white">
                <use xlink:href="#path-1"></use>
            </mask>
            <g id="path-1"></g>
            <rect id="Rectangle-path" fill="url(#linearGradient-3)" fill-rule="nonzero" mask="url(#mask-2)" transform="translate(5.500000, 31.500000) rotate(-180.000000) translate(-5.500000, -31.500000) " x="0" y="0" width="11" height="63"></rect>
        </g>
    </g>
</svg>